<?xml version="1.0" encoding="UTF-8" standalone="no"?>
<!-- Created with Inkscape (http://www.inkscape.org/) -->

<svg
   xmlns:dc="http://purl.org/dc/elements/1.1/"
   xmlns:cc="http://creativecommons.org/ns#"
   xmlns:rdf="http://www.w3.org/1999/02/22-rdf-syntax-ns#"
   xmlns:svg="http://www.w3.org/2000/svg"
   xmlns="http://www.w3.org/2000/svg"
   xmlns:sodipodi="http://sodipodi.sourceforge.net/DTD/sodipodi-0.dtd"
   xmlns:inkscape="http://www.inkscape.org/namespaces/inkscape"
   id="svg2"
   version="1.1"
   inkscape:version="0.91 r"
   xml:space="preserve"
   width="1052.5"
   height="743.75"
   viewBox="0 0 1052.5 743.75"
   sodipodi:docname="interconnect_cover_rev2.svg"><metadata
     id="metadata8"><rdf:RDF><cc:Work
         rdf:about=""><dc:format>image/svg+xml</dc:format><dc:type
           rdf:resource="http://purl.org/dc/dcmitype/StillImage" /><dc:title></dc:title></cc:Work></rdf:RDF></metadata><defs
     id="defs6"><clipPath
       clipPathUnits="userSpaceOnUse"
       id="clipPath26"><path
         d="m 0,0 14033,0 0,9917 L 0,9917 0,0 Z"
         id="path28"
         inkscape:connector-curvature="0"
         style="clip-rule:evenodd" /></clipPath><clipPath
       clipPathUnits="userSpaceOnUse"
       id="clipPath46"><path
         d="m 0,0 14033,0 0,9917 L 0,9917 0,0 Z"
         id="path48"
         inkscape:connector-curvature="0"
         style="clip-rule:evenodd" /></clipPath><clipPath
       clipPathUnits="userSpaceOnUse"
       id="clipPath52"><path
         d="m 12.946475,12.946475 12804.063525,0 0,9891.107025 -12804.063525,0 0,-9891.107025 z"
         id="path54"
         inkscape:connector-curvature="0"
         style="clip-rule:evenodd" /></clipPath><clipPath
       clipPathUnits="userSpaceOnUse"
       id="clipPath2156"><path
         d="m 0,0 14033,0 0,9917 L 0,9917 0,0 Z"
         id="path2158"
         inkscape:connector-curvature="0"
         style="clip-rule:evenodd" /></clipPath></defs><sodipodi:namedview
     pagecolor="#ffffff"
     bordercolor="#666666"
     borderopacity="1"
     objecttolerance="10"
     gridtolerance="10"
     guidetolerance="10"
     inkscape:pageopacity="0"
     inkscape:pageshadow="2"
     inkscape:window-width="1879"
     inkscape:window-height="1022"
     id="namedview4"
     showgrid="false"
     inkscape:zoom="0.725"
     inkscape:cx="231.51896"
     inkscape:cy="363.16526"
     inkscape:window-x="41"
     inkscape:window-y="0"
     inkscape:window-maximized="1"
     inkscape:current-layer="g10" /><g
     id="g10"
     inkscape:groupmode="layer"
     inkscape:label="interconnect_cover_v0.5_PP-MP0107"
     transform="matrix(1.25,0,0,-1.25,0,743.75)"><g
       id="g5774"
       transform="translate(47.207013,4.7094215)"><g
         transform="matrix(2.8285368,0,0,2.8293782,156.47013,40.680133)"
         id="g60"><path
           inkscape:connector-curvature="0"
           id="path62"
           style="fill:none;stroke:#000000;stroke-width:0.34999999;stroke-linecap:butt;stroke-linejoin:miter;stroke-miterlimit:10;stroke-dasharray:none;stroke-opacity:1"
           d="m -1,184 72,0" /></g><g
         transform="matrix(2.8285368,0,0,2.8293782,156.47013,40.680133)"
         id="g66"><path
           inkscape:connector-curvature="0"
           id="path68"
           style="fill:none;stroke:#000000;stroke-width:0.34999999;stroke-linecap:butt;stroke-linejoin:miter;stroke-miterlimit:10;stroke-dasharray:none;stroke-opacity:1"
           d="m -1,184 c -1.6568542,0 -3,-1.34315 -3,-3" /></g><g
         transform="matrix(2.8285368,0,0,2.8293782,156.47013,40.680133)"
         id="g72"><path
           inkscape:connector-curvature="0"
           id="path74"
           style="fill:none;stroke:#000000;stroke-width:0.34999999;stroke-linecap:butt;stroke-linejoin:miter;stroke-miterlimit:10;stroke-dasharray:none;stroke-opacity:1"
           d="m 71,184 c 1.656854,0 3,-1.34315 3,-3" /></g><g
         transform="matrix(2.8285368,0,0,2.8293782,156.47013,40.680133)"
         id="g78"><path
           inkscape:connector-curvature="0"
           id="path80"
           style="fill:none;stroke:#000000;stroke-width:0.34999999;stroke-linecap:butt;stroke-linejoin:miter;stroke-miterlimit:10;stroke-dasharray:none;stroke-opacity:1"
           d="m -4,-1 0,182" /></g><g
         transform="matrix(2.8285368,0,0,2.8293782,156.47013,40.680133)"
         id="g84"><path
           inkscape:connector-curvature="0"
           id="path86"
           style="fill:none;stroke:#000000;stroke-width:0.34999999;stroke-linecap:butt;stroke-linejoin:miter;stroke-miterlimit:10;stroke-dasharray:none;stroke-opacity:1"
           d="M 74,181 74,-1" /></g><g
         transform="matrix(2.8285368,0,0,2.8293782,156.47013,40.680133)"
         id="g90"><path
           inkscape:connector-curvature="0"
           id="path92"
           style="fill:none;stroke:#000000;stroke-width:0.34999999;stroke-linecap:butt;stroke-linejoin:miter;stroke-miterlimit:10;stroke-dasharray:none;stroke-opacity:1"
           d="m -1,-4 c -1.6568542,0 -3,1.3431458 -3,3" /></g><g
         transform="matrix(2.8285368,0,0,2.8293782,156.47013,40.680133)"
         id="g96"><path
           inkscape:connector-curvature="0"
           id="path98"
           style="fill:none;stroke:#000000;stroke-width:0.34999999;stroke-linecap:butt;stroke-linejoin:miter;stroke-miterlimit:10;stroke-dasharray:none;stroke-opacity:1"
           d="m 74,-1 c 0,-1.6568542 -1.343146,-3 -3,-3" /></g><g
         transform="matrix(2.8285368,0,0,2.8293782,156.47013,40.680133)"
         id="g102"><path
           inkscape:connector-curvature="0"
           id="path104"
           style="fill:none;stroke:#000000;stroke-width:0.34999999;stroke-linecap:butt;stroke-linejoin:miter;stroke-miterlimit:10;stroke-dasharray:none;stroke-opacity:1"
           d="M 71,-4 -1,-4" /></g><g
         transform="matrix(2.8285368,0,0,2.8293782,156.47013,40.680133)"
         id="g108"><path
           inkscape:connector-curvature="0"
           id="path110"
           style="fill:none;stroke:#000000;stroke-width:0.34999999;stroke-linecap:butt;stroke-linejoin:miter;stroke-miterlimit:10;stroke-dasharray:none;stroke-opacity:1"
           d="m 72,90 c 0,1.104569 -0.895431,2 -2,2 -1.10457,0 -2,-0.895431 -2,-2 0,-1.10457 0.89543,-2 2,-2 1.104569,0 2,0.89543 2,2 z" /></g><g
         transform="matrix(2.8285368,0,0,2.8293782,156.47013,40.680133)"
         id="g114"><path
           inkscape:connector-curvature="0"
           id="path116"
           style="fill:none;stroke:#000000;stroke-width:0.34999999;stroke-linecap:butt;stroke-linejoin:miter;stroke-miterlimit:10;stroke-dasharray:none;stroke-opacity:1"
           d="m 72,0 c 0,1.1045695 -0.895431,2 -2,2 -1.10457,0 -2,-0.8954305 -2,-2 0,-1.1045695 0.89543,-2 2,-2 1.104569,0 2,0.8954305 2,2 z" /></g><g
         transform="matrix(2.8285368,0,0,2.8293782,156.47013,40.680133)"
         id="g120"><path
           inkscape:connector-curvature="0"
           id="path122"
           style="fill:none;stroke:#000000;stroke-width:0.34999999;stroke-linecap:butt;stroke-linejoin:miter;stroke-miterlimit:10;stroke-dasharray:none;stroke-opacity:1"
           d="m 2,90 c 0,1.104569 -0.8954305,2 -2,2 -1.1045695,0 -2,-0.895431 -2,-2 0,-1.10457 0.8954305,-2 2,-2 1.1045695,0 2,0.89543 2,2 z" /></g><g
         transform="matrix(2.8285368,0,0,2.8293782,156.47013,40.680133)"
         id="g126"><path
           inkscape:connector-curvature="0"
           id="path128"
           style="fill:none;stroke:#000000;stroke-width:0.34999999;stroke-linecap:butt;stroke-linejoin:miter;stroke-miterlimit:10;stroke-dasharray:none;stroke-opacity:1"
           d="M 2,0 C 2,1.1045695 1.1045695,2 0,2 -1.1045695,2 -2,1.1045695 -2,0 c 0,-1.1045695 0.8954305,-2 2,-2 1.1045695,0 2,0.8954305 2,2 z" /></g><g
         transform="matrix(2.8285368,0,0,2.8293782,156.47013,40.680133)"
         id="g132"><path
           inkscape:connector-curvature="0"
           id="path134"
           style="fill:none;stroke:#000000;stroke-width:0.34999999;stroke-linecap:butt;stroke-linejoin:miter;stroke-miterlimit:10;stroke-dasharray:none;stroke-opacity:1"
           d="m 72,180 c 0,1.10457 -0.895431,2 -2,2 -1.10457,0 -2,-0.89543 -2,-2 0,-1.10457 0.89543,-2 2,-2 1.104569,0 2,0.89543 2,2 z" /></g><g
         transform="matrix(2.8285368,0,0,2.8293782,156.47013,40.680133)"
         id="g138"><path
           inkscape:connector-curvature="0"
           id="path140"
           style="fill:none;stroke:#000000;stroke-width:0.34999999;stroke-linecap:butt;stroke-linejoin:miter;stroke-miterlimit:10;stroke-dasharray:none;stroke-opacity:1"
           d="m 2,180 c 0,1.10457 -0.8954305,2 -2,2 -1.1045695,0 -2,-0.89543 -2,-2 0,-1.10457 0.8954305,-2 2,-2 1.1045695,0 2,0.89543 2,2 z" /></g><g
         transform="matrix(0,0.06174042,0.06174042,0,-8.3843317,-125.63781)"
         id="g316"><path
           inkscape:connector-curvature="0"
           id="path318"
           style="fill:#000000;fill-opacity:1;fill-rule:nonzero;stroke:none"
           d="m 2693.8261,5877.0584 0,-91.6268" /></g><g
         transform="matrix(0,0.06174042,0.06174042,0,-8.3843317,-125.63781)"
         id="g324"><path
           inkscape:connector-curvature="0"
           id="path326"
           style="fill:#000000;fill-opacity:1;fill-rule:nonzero;stroke:none"
           d="m 2693.8261,5877.0584 91.1669,0" /></g><g
         transform="matrix(0,0.06174042,0.06174042,0,-8.3843317,-125.63781)"
         id="g348"><path
           inkscape:connector-curvature="0"
           id="path350"
           style="fill:#000000;fill-opacity:1;fill-rule:nonzero;stroke:none"
           d="m 2693.8261,2670.1222 0,91.6267" /></g><g
         transform="matrix(0,0.06174042,0.06174042,0,-8.3843317,-125.63781)"
         id="g380"><path
           inkscape:connector-curvature="0"
           id="path382"
           style="fill:#000000;fill-opacity:1;fill-rule:nonzero;stroke:none"
           d="m 6818.2563,2670.1222 0,91.6267" /></g><g
         transform="matrix(0,0.06174042,0.06174042,0,-8.3843317,-125.63781)"
         id="g396"><path
           inkscape:connector-curvature="0"
           id="path398"
           style="fill:#000000;fill-opacity:1;fill-rule:nonzero;stroke:none"
           d="m 6818.2563,2670.1222 0,-91.6268" /></g><g
         transform="matrix(0,0.06174042,0.06174042,0,-8.3843317,-125.63781)"
         id="g412"><path
           inkscape:connector-curvature="0"
           id="path414"
           style="fill:#000000;fill-opacity:1;fill-rule:nonzero;stroke:none"
           d="m 10942.686,2670.1222 0,91.6267" /></g><g
         transform="matrix(0,0.06174042,0.06174042,0,-8.3843317,-125.63781)"
         id="g420"><path
           inkscape:connector-curvature="0"
           id="path422"
           style="fill:#000000;fill-opacity:1;fill-rule:nonzero;stroke:none"
           d="m 10942.686,2670.1222 78.263,0" /></g><g
         transform="matrix(0,0.06174042,0.06174042,0,-8.3843317,-125.63781)"
         id="g436"><path
           inkscape:connector-curvature="0"
           id="path438"
           style="fill:#000000;fill-opacity:1;fill-rule:nonzero;stroke:none"
           d="m 10942.686,2670.1222 -91.653,0 m -91.655,0 -36.252,0" /></g><g
         transform="matrix(0,0.06174042,0.06174042,0,-8.3843317,-125.63781)"
         id="g444"><path
           inkscape:connector-curvature="0"
           id="path446"
           style="fill:#000000;fill-opacity:1;fill-rule:nonzero;stroke:none"
           d="m 10942.686,5877.0584 0,-91.6268" /></g><g
         transform="matrix(0,0.06174042,0.06174042,0,-8.3843317,-125.63781)"
         id="g452"><path
           inkscape:connector-curvature="0"
           id="path454"
           style="fill:#000000;fill-opacity:1;fill-rule:nonzero;stroke:none"
           d="m 10942.686,5877.0584 78.263,0" /></g><g
         transform="matrix(0,0.06174042,0.06174042,0,-8.3843317,-125.63781)"
         id="g460"><path
           inkscape:connector-curvature="0"
           id="path462"
           style="fill:#000000;fill-opacity:1;fill-rule:nonzero;stroke:none"
           d="m 10942.686,5877.0584 0,79.1291" /></g><g
         transform="matrix(0,0.06174042,0.06174042,0,-8.3843317,-125.63781)"
         id="g476"><path
           inkscape:connector-curvature="0"
           id="path478"
           style="fill:#000000;fill-opacity:1;fill-rule:nonzero;stroke:none"
           d="m 6818.2563,5877.0584 0,-91.6268" /></g><g
         transform="matrix(0,2.8293782,2.8285368,0,-7.5850097,-124.83849)"
         id="g480"><path
           inkscape:connector-curvature="0"
           id="path482"
           style="fill:none;stroke:#0000ff;stroke-width:0.30000001;stroke-linecap:butt;stroke-linejoin:miter;stroke-miterlimit:10;stroke-dasharray:none;stroke-opacity:1"
           d="m 148.5,128 0,-2" /></g><g
         transform="matrix(0,0.06174042,0.06174042,0,-8.3843317,-125.63781)"
         id="g484"><path
           inkscape:connector-curvature="0"
           id="path486"
           style="fill:#000000;fill-opacity:1;fill-rule:nonzero;stroke:none"
           d="m 6818.2563,5877.0584 91.654,0" /></g><g
         transform="matrix(0,0.06174042,0.06174042,0,-8.3843317,-125.63781)"
         id="g492"><path
           inkscape:connector-curvature="0"
           id="path494"
           style="fill:#000000;fill-opacity:1;fill-rule:nonzero;stroke:none"
           d="m 6818.2563,5877.0584 0,90.5804" /></g><g
         transform="matrix(0,2.8293782,2.8285368,0,-7.5850097,-124.83849)"
         id="g496"><path
           inkscape:connector-curvature="0"
           id="path498"
           style="fill:none;stroke:#0000ff;stroke-width:0.30000001;stroke-linecap:butt;stroke-linejoin:miter;stroke-miterlimit:10;stroke-dasharray:none;stroke-opacity:1"
           d="m 148.5,128 0,1.97716" /></g><g
         transform="matrix(0,0.06174042,0.06174042,0,-8.3843317,-125.63781)"
         id="g500"><path
           inkscape:connector-curvature="0"
           id="path502"
           style="fill:#000000;fill-opacity:1;fill-rule:nonzero;stroke:none"
           d="m 6818.2563,5877.0584 -91.654,0" /></g><g
         transform="matrix(0,2.8293782,2.8285368,0,-7.5850097,-124.83849)"
         id="g558"><path
           inkscape:connector-curvature="0"
           id="path560"
           style="fill:none;stroke:#0000ff;stroke-width:0.2;stroke-linecap:butt;stroke-linejoin:miter;stroke-miterlimit:10;stroke-dasharray:none;stroke-opacity:1"
           d="m 148.5,132 0,7.47567" /><path
           inkscape:connector-curvature="0"
           id="path562"
           style="fill:none;stroke:#0000ff;stroke-width:0.2;stroke-linecap:butt;stroke-linejoin:miter;stroke-miterlimit:10;stroke-dasharray:none;stroke-opacity:1"
           d="m 58.5,132 0,7.47567" /><path
           inkscape:connector-curvature="0"
           id="path564"
           style="fill:none;stroke:#0000ff;stroke-width:0.2;stroke-linecap:butt;stroke-linejoin:miter;stroke-miterlimit:10;stroke-dasharray:none;stroke-opacity:1"
           d="m 148.5,138.47567 -90,0" /></g><g
         transform="matrix(0,0.06174042,0.06174042,0,-8.3843317,-125.63781)"
         id="g566"><path
           inkscape:connector-curvature="0"
           id="path568"
           style="fill:#0000ff;fill-opacity:1;fill-rule:nonzero;stroke:none"
           d="m 2693.8261,6356.984 137.481,34.3601 0,-34.3601 0,-34.36 -137.481,34.36 z" /><path
           inkscape:connector-curvature="0"
           id="path570"
           style="fill:#0000ff;fill-opacity:1;fill-rule:nonzero;stroke:none"
           d="m 6818.2563,6356.984 -137.481,-34.36 0,34.36 0,34.3601 137.481,-34.3601 z" /></g><g
         transform="matrix(0,0.06174042,0.06174042,0,-8.3843317,-125.63781)"
         id="g574"><path
           inkscape:connector-curvature="0"
           id="path576"
           style="fill:#0000ff;fill-opacity:1;fill-rule:nonzero;stroke:none"
           d="m 4471.0259,6253.9521 47.3235,0 0,11.4033 -63.6279,0 0,-11.4033 c 5.1412,-5.3258 12.1549,-12.4734 21.041,-21.4428 8.8862,-8.9694 14.4678,-14.7569 16.7448,-17.3625 4.3392,-4.8677 7.3717,-8.9909 9.0974,-12.3697 1.7256,-3.3787 2.5885,-6.7002 2.5885,-9.9644 0,-5.3258 -1.8689,-9.6673 -5.6067,-13.0246 -3.7377,-3.3572 -8.6069,-5.0358 -14.6073,-5.0358 -4.2533,0 -8.7394,0.7373 -13.4581,2.2119 -4.7188,1.4746 -9.7633,3.7152 -15.1337,6.7217 l 0,-13.7011 c 5.4563,-2.1905 10.5581,-3.844 15.3055,-4.9607 4.7474,-1.1167 9.0902,-1.6751 13.0285,-1.6751 10.3827,0 18.6602,2.5949 24.8325,7.7847 6.1723,5.1898 9.2585,12.1227 9.2585,20.7986 0,4.1232 -0.7698,8.028 -2.3093,11.7146 -1.5395,3.6865 -4.3499,8.0352 -8.4314,13.0461 -1.117,1.3028 -4.6722,5.0537 -10.6655,11.2529 -5.9933,6.1991 -14.4534,14.8678 -25.3803,26.0062 z m 70.2657,-88.7992 14.5644,0 24.9184,37.2592 25.0258,-37.2592 14.5644,0 -32.2221,48.1255 34.3703,52.077 -14.5644,0 -28.1836,-42.6065 -28.3985,42.6065 -14.6288,0 35.7666,-53.4943 -31.2125,-46.7082 z m 145.3002,98.1194 0,-12.3482 c 3.4084,1.6178 6.8562,2.8491 10.3433,3.6937 3.4872,0.8447 6.9134,1.2671 10.2789,1.2671 8.9506,0 15.7852,-3.0065 20.504,-9.0195 4.7187,-6.013 7.4146,-15.1542 8.0877,-27.4236 -2.5921,3.8511 -5.8823,6.8075 -9.8707,8.8691 -3.9884,2.0616 -8.3956,3.0924 -13.2218,3.0924 -10.0247,0 -17.9585,-3.0315 -23.8014,-9.0946 -5.8429,-6.0631 -8.7644,-14.3561 -8.7644,-24.8788 0,-10.2794 3.0432,-18.5294 9.1296,-24.75 6.0864,-6.2206 14.1849,-9.3309 24.2955,-9.3309 11.5999,0 20.4538,4.4418 26.5617,13.3253 6.1079,8.8835 9.1618,21.7792 9.1618,38.6872 0,15.7913 -3.7485,28.3971 -11.2455,37.8175 -7.497,9.4204 -17.5754,14.1306 -30.2351,14.1306 -3.4083,0 -6.8561,-0.3365 -10.3433,-1.0093 -3.4871,-0.6729 -7.1139,-1.6823 -10.8803,-3.028 z m 26.9807,-42.4776 c 6.0864,0 10.9089,-2.0795 14.4677,-6.2385 3.5587,-4.159 5.3381,-9.8678 5.3381,-17.1263 0,-7.2013 -1.7794,-12.8922 -5.3381,-17.0727 -3.5588,-4.1804 -8.3813,-6.2707 -14.4677,-6.2707 -6.0864,0 -10.9054,2.0903 -14.457,6.2707 -3.5516,4.1805 -5.3274,9.8714 -5.3274,17.0727 0,7.2585 1.7758,12.9673 5.3274,17.1263 3.5516,4.159 8.3706,6.2385 14.457,6.2385 z m 89.5989,-46.7082 c -6.9743,0 -12.2193,3.4324 -15.7351,10.2973 -3.5158,6.8648 -5.2737,17.1907 -5.2737,30.9777 0,13.7297 1.7579,24.0306 5.2737,30.9026 3.5158,6.872 8.7608,10.308 15.7351,10.308 7.0316,0 12.3053,-3.436 15.8211,-10.308 3.5158,-6.872 5.2737,-17.1729 5.2737,-30.9026 0,-13.787 -1.7579,-24.1129 -5.2737,-30.9777 -3.5158,-6.8649 -8.7895,-10.2973 -15.8211,-10.2973 z m 0,-10.7375 c 11.2419,0 19.8273,4.4418 25.7562,13.3253 5.9289,8.8835 8.8933,21.7792 8.8933,38.6872 0,16.8651 -2.9644,29.7393 -8.8933,38.6228 -5.9289,8.8835 -14.5143,13.3253 -25.7562,13.3253 -11.2276,0 -19.8058,-4.4418 -25.7347,-13.3253 -5.9289,-8.8835 -8.8933,-21.7577 -8.8933,-38.6228 0,-16.908 2.9644,-29.8037 8.8933,-38.6872 5.9289,-8.8835 14.5071,-13.3253 25.7347,-13.3253 z m 58.9879,84.9552 14.1778,0 0,17.0512 -14.1778,0 0,-17.0512 z m 72.9939,-74.2177 c -6.9743,0 -12.2194,3.4324 -15.7352,10.2973 -3.5157,6.8648 -5.2736,17.1907 -5.2736,30.9777 0,13.7297 1.7579,24.0306 5.2736,30.9026 3.5158,6.872 8.7609,10.308 15.7352,10.308 7.0316,0 12.3052,-3.436 15.821,-10.308 3.5158,-6.872 5.2737,-17.1729 5.2737,-30.9026 0,-13.787 -1.7579,-24.1129 -5.2737,-30.9777 -3.5158,-6.8649 -8.7894,-10.2973 -15.821,-10.2973 z m 0,-10.7375 c 11.2419,0 19.8273,4.4418 25.7562,13.3253 5.9288,8.8835 8.8933,21.7792 8.8933,38.6872 0,16.8651 -2.9645,29.7393 -8.8933,38.6228 -5.9289,8.8835 -14.5143,13.3253 -25.7562,13.3253 -11.2276,0 -19.8059,-4.4418 -25.7348,-13.3253 -5.9288,-8.8835 -8.8932,-21.7577 -8.8932,-38.6228 0,-16.908 2.9644,-29.8037 8.8932,-38.6872 5.9289,-8.8835 14.5072,-13.3253 25.7348,-13.3253 z m 87.9878,10.7375 c -6.9743,0 -12.2193,3.4324 -15.7351,10.2973 -3.5158,6.8648 -5.2737,17.1907 -5.2737,30.9777 0,13.7297 1.7579,24.0306 5.2737,30.9026 3.5158,6.872 8.7608,10.308 15.7351,10.308 7.0316,0 12.3053,-3.436 15.8211,-10.308 3.5158,-6.872 5.2737,-17.1729 5.2737,-30.9026 0,-13.787 -1.7579,-24.1129 -5.2737,-30.9777 -3.5158,-6.8649 -8.7895,-10.2973 -15.8211,-10.2973 z m 0,-10.7375 c 11.242,0 19.8274,4.4418 25.7562,13.3253 5.9289,8.8835 8.8933,21.7792 8.8933,38.6872 0,16.8651 -2.9644,29.7393 -8.8933,38.6228 -5.9288,8.8835 -14.5142,13.3253 -25.7562,13.3253 -11.2276,0 -19.8058,-4.4418 -25.7347,-13.3253 -5.9289,-8.8835 -8.8933,-21.7577 -8.8933,-38.6228 0,-16.908 2.9644,-29.8037 8.8933,-38.6872 5.9289,-8.8835 14.5071,-13.3253 25.7347,-13.3253 z" /><g
           id="g578"><path
             inkscape:connector-curvature="0"
             id="path580"
             style="fill:#0000ff;fill-opacity:1;fill-rule:nonzero;stroke:none"
             d="m 4471.0259,6253.2649 47.3235,0 0.6874,0 0,0.6872 0,11.4033 0,0.6872 -0.6874,0 -63.6279,0 -0.6874,0 0,-0.6872 0,-11.4033 0,-0.2775 0.1928,-0.1997 c 5.1431,-5.3278 12.1599,-12.4786 21.0472,-21.4492 8.8829,-8.9661 14.4496,-14.7381 16.7155,-17.3311 l 0,0 0,0 c 4.3178,-4.8436 7.298,-8.8959 8.9984,-12.225 1.6914,-3.3117 2.5133,-6.4754 2.5133,-9.6519 0,-5.1842 -1.7532,-9.257 -5.3787,-12.5134 -3.6341,-3.2642 -8.2627,-4.8599 -14.1479,-4.8599 -4.1972,0 -8.5803,0.7204 -13.253,2.1807 -4.681,1.4628 -9.6603,3.6744 -15.0029,6.6653 l -1.0233,0.5729 0,-1.1724 0,-13.7011 0,-0.4646 0.4313,-0.1731 c 5.478,-2.1992 10.6292,-3.8688 15.4042,-4.992 4.7819,-1.1248 9.2036,-1.6933 13.1859,-1.6933 10.4879,0 18.9973,2.6676 25.275,7.946 6.2935,5.2917 9.5034,12.5025 9.5034,21.3245 0,4.1902 -0.7961,8.2289 -2.3623,11.9793 -1.5632,3.7432 -4.4275,8.1752 -8.5328,13.2153 l -0.01,0.01 -0.01,0.01 c -1.1282,1.3158 -4.6975,5.0817 -10.6932,11.2833 -5.9944,6.2002 -14.4562,14.8708 -25.3837,26.0098 l -0.4908,-0.4812 0,-0.6872 z m -0.4908,0.206 c 10.9263,-11.1377 19.3846,-19.8046 25.3768,-26.0026 5.9909,-6.1967 9.532,-9.9327 10.6379,-11.2226 l 0.5219,0.4473 -0.5331,-0.434 c 4.0577,-4.9815 6.8144,-9.2469 8.3302,-12.8768 1.5128,-3.6227 2.2562,-7.3938 2.2562,-11.4499 0,-8.5299 -2.9624,-15.1848 -9.0136,-20.2727 -6.0669,-5.1012 -14.1126,-7.6234 -24.39,-7.6234 -3.8942,0 -8.1582,0.5482 -12.871,1.6568 -4.7198,1.1102 -9.7723,2.7478 -15.2068,4.9295 l -0.2562,-0.6377 0.6874,0 0,13.7011 -0.6874,0 -0.3358,-0.5996 c 5.398,-3.022 10.5078,-5.2916 15.2644,-6.778 4.7647,-1.489 9.3537,-2.2433 13.6632,-2.2433 6.1156,0 11.2254,1.7616 15.0667,5.212 3.8501,3.4581 5.8347,8.0683 5.8347,13.5357 0,3.352 -0.9038,6.8312 -2.6637,10.2769 -1.751,3.4284 -4.8357,7.6226 -9.1964,12.5144 l -0.5132,-0.4572 0.5177,0.4521 c -2.2882,2.6183 -7.8847,8.4213 -16.7741,17.394 -8.8849,8.9682 -15.8955,16.1126 -21.0348,21.4364 l -0.4946,-0.4772 0.6874,0 0,11.4033 -0.6874,0 0,-0.6872 63.6279,0 0,0.6872 -0.6874,0 0,-11.4033 0.6874,0 0,0.6872 -47.3235,0 -1.637,0 1.1462,-1.1684 z m 70.7565,-89.0052 14.5644,0 0.3673,0 0.2041,0.3053 24.9184,37.2591 -0.5714,0.382 -0.5707,-0.3831 25.0258,-37.2592 0.2043,-0.3041 0.3664,0 14.5644,0 1.2873,0 -0.716,1.0695 -32.2221,48.1255 -0.5713,-0.3823 0.5738,-0.3784 34.3702,52.0769 0.7034,1.0657 -1.2771,0 -14.5644,0 -0.3696,0 -0.2038,-0.3082 -28.1836,-42.6064 0.5734,-0.3791 0.572,0.3811 -28.3984,42.6064 -0.2041,0.3062 -0.368,0 -14.6288,0 -1.2863,0 0.7148,-1.0691 35.7666,-53.4943 0.5715,0.3819 -0.5716,0.3817 -31.2125,-46.7081 -0.7143,-1.069 1.2859,0 z m 0.5716,0.3055 31.2124,46.7081 0.2552,0.3819 -0.2553,0.3818 -35.7665,53.4942 -0.5715,-0.3818 0,-0.6872 14.6288,0 0,0.6872 -0.572,-0.3811 28.3984,-42.6064 0.5742,-0.8615 0.5712,0.8635 28.1836,42.6064 -0.5733,0.3791 0,-0.6872 14.5644,0 0,0.6872 -0.5738,0.3784 -34.3703,-52.0769 -0.2515,-0.3812 0.2541,-0.3795 32.2221,-48.1255 0.5712,0.3822 0,0.6872 -14.5644,0 0,-0.6872 0.5707,0.3831 -25.0258,37.2592 -0.5719,0.8515 -0.5703,-0.8527 -24.9184,-37.2591 0.5715,-0.382 0,0.6872 -14.5644,0 0,-0.6872 0.5716,-0.3817 z m 144.0412,98.5011 0,-12.3482 0,-1.087 0.9822,0.4663 c 3.3773,1.603 6.7585,2.8104 10.2104,3.6466 3.4487,0.8353 6.7938,1.2477 10.117,1.2477 8.806,0 15.3507,-2.879 19.9631,-8.7565 4.6375,-5.9094 7.2735,-14.8476 7.9422,-27.0371 l 0.6864,0.038 0.5703,0.3836 c -2.6396,3.9218 -6.0586,6.9939 -10.1253,9.096 -4.0643,2.1008 -8.632,3.1691 -13.5375,3.1691 -10.1515,0 -18.3471,-3.1315 -24.2964,-9.305 -5.9467,-6.1707 -8.9568,-14.7154 -8.9568,-25.3556 0,-10.4021 3.1365,-18.9049 9.3256,-25.2305 6.1913,-6.3278 14.5488,-9.5376 24.7869,-9.5376 11.7627,0 20.9202,4.594 27.1282,13.6232 6.1807,8.9894 9.2827,22.0883 9.2827,39.0765 0,15.8913 -3.8149,28.7207 -11.395,38.2454 -7.5975,9.5467 -17.9605,14.3899 -30.773,14.3899 -3.4418,0 -6.9549,-0.3428 -10.4735,-1.0218 -3.5145,-0.6781 -7.1918,-1.7015 -10.9814,-3.0556 l -0.4561,-0.163 0,-0.4841 z m 0.9188,-0.6471 c 3.7431,1.3374 7.3194,2.3327 10.7792,3.0003 3.4556,0.6668 6.8381,0.9969 10.213,0.9969 12.507,0 22.3007,-4.5772 29.6972,-13.8712 7.414,-9.3161 11.096,-21.6984 11.096,-37.3897 0,-16.8278 -3.0058,-29.5204 -9.0409,-38.298 -6.0077,-8.7378 -14.5581,-13.0273 -25.9952,-13.0273 -9.9831,0 -17.8226,3.0108 -23.8041,9.1242 -5.9837,6.1156 -8.9336,14.1128 -8.9336,24.2695 0,10.4053 2.8328,18.4465 8.572,24.402 5.7366,5.9527 13.4086,8.8842 23.3064,8.8842 4.7468,0 8.9936,-0.9932 12.9061,-3.0156 3.9101,-2.0211 7.0715,-4.8618 9.6161,-8.6424 l 1.3934,-2.0702 -0.1367,2.4915 c -0.6775,12.3493 -3.4333,21.6936 -8.2333,27.8101 -4.8251,6.1485 -11.9497,9.2826 -21.0448,9.2826 -3.4077,0 -6.9152,-0.4324 -10.4408,-1.2864 -3.5223,-0.8532 -7.0367,-2.1082 -10.4762,-3.7408 l 0.2948,-0.6208 0.6874,0 0,12.3482 -0.6874,0 0.2314,-0.6471 z m 26.7493,-42.5177 c 5.9444,0 10.4902,-1.9602 13.9453,-5.998 3.4669,-4.0516 5.1731,-9.5257 5.1731,-16.6796 0,-7.0964 -1.7063,-12.5535 -5.1742,-16.6273 -3.4552,-4.0589 -8.0004,-6.0289 -13.9442,-6.0289 -5.9437,0 -10.4851,1.9698 -13.9331,6.0284 -3.461,4.0738 -5.1639,9.5312 -5.1639,16.6278 0,7.1541 1.7029,12.6285 5.1628,16.6801 3.4478,4.0375 7.9898,5.9975 13.9342,5.9975 z m 0,1.3744 c -6.2285,0 -11.3245,-2.1991 -14.9798,-6.4795 -3.6433,-4.2664 -5.492,-10.2096 -5.492,-17.5725 0,-7.306 1.8486,-13.2304 5.4908,-17.5175 3.6552,-4.3024 8.7519,-6.5131 14.981,-6.5131 6.229,0 11.3289,2.2105 14.9912,6.5126 3.6495,4.2871 5.502,10.2118 5.502,17.518 0,7.3631 -1.8525,13.3066 -5.5031,17.573 -3.6625,4.2802 -8.7618,6.479 -14.9901,6.479 z m 89.5989,-46.7082 c -6.7693,0 -11.6905,3.2205 -15.1233,9.9233 -3.4677,6.7709 -5.1981,16.9356 -5.1981,30.6645 0,13.6715 1.7304,23.8113 5.1983,30.5896 3.4328,6.71 8.354,9.9338 15.1231,9.9338 6.8274,0 11.7766,-3.2246 15.2091,-9.9338 3.4678,-6.7783 5.1982,-16.9181 5.1982,-30.5896 0,-13.7289 -1.7304,-23.8936 -5.1981,-30.6645 -3.4324,-6.702 -8.3817,-9.9233 -15.2092,-9.9233 z m 0,-1.3744 c 7.2356,0 12.8337,3.6436 16.4329,10.6713 3.5639,6.9588 5.3493,17.4459 5.3493,31.2909 0,13.7879 -1.7854,24.2498 -5.3491,31.2155 -3.5992,7.0349 -9.1973,10.6823 -16.4331,10.6823 -7.1795,0 -12.7484,-3.6482 -16.3471,-10.6823 -3.5637,-6.9657 -5.3491,-17.4276 -5.3491,-31.2155 0,-13.845 1.7853,-24.3321 5.3492,-31.2909 3.5988,-7.0269 9.1677,-10.6713 16.347,-10.6713 z m 0,-10.7375 c 11.4093,0 20.3008,4.6001 26.328,13.6311 5.9988,8.9882 9.0089,22.0827 9.0089,39.0686 0,16.9431 -3.0102,30.0161 -9.0089,39.0042 -6.0272,9.031 -14.9187,13.6311 -26.328,13.6311 -11.3951,0 -20.2793,-4.6002 -26.3065,-13.6311 -5.9987,-8.9881 -9.0089,-22.0611 -9.0089,-39.0042 0,-16.9859 3.0101,-30.0804 9.0089,-39.0686 6.0272,-9.0309 14.9114,-13.6311 26.3065,-13.6311 z m 0,1.3744 c -11.0601,0 -19.3324,4.2833 -25.1629,13.0195 -5.859,8.7787 -8.7777,21.4758 -8.7777,38.3058 0,16.787 2.9187,29.4626 8.7777,38.2414 5.8305,8.7362 14.1028,13.0195 25.1629,13.0195 11.0746,0 19.3539,-4.2834 25.1844,-13.0195 5.859,-8.7788 8.7777,-21.4544 8.7777,-38.2414 0,-16.83 -2.9187,-29.5271 -8.7777,-38.3058 -5.8305,-8.7361 -14.1098,-13.0195 -25.1844,-13.0195 z m 58.9879,83.5808 14.1778,0 0.6874,0 0,0.6872 0,17.0512 0,0.6872 -0.6874,0 -14.1778,0 -0.6874,0 0,-0.6872 0,-17.0512 0,-0.6872 0.6874,0 z m 0.6875,0.6872 0,17.0512 -0.6875,0 0,-0.6872 14.1778,0 0,0.6872 -0.6874,0 0,-17.0512 0.6874,0 0,0.6872 -14.1778,0 0,-0.6872 0.6875,0 z m 72.3064,-73.5305 c -6.7693,0 -11.6905,3.2205 -15.1233,9.9233 -3.4677,6.7709 -5.1981,16.9356 -5.1981,30.6645 0,13.6715 1.7304,23.8113 5.1982,30.5896 3.4329,6.71 8.354,9.9338 15.1232,9.9338 6.8273,0 11.7766,-3.2246 15.209,-9.9338 3.4679,-6.7783 5.1983,-16.9181 5.1983,-30.5896 0,-13.7289 -1.7304,-23.8936 -5.1981,-30.6645 -3.4324,-6.702 -8.3817,-9.9233 -15.2092,-9.9233 z m 0,-1.3744 c 7.2356,0 12.8337,3.6436 16.4329,10.6713 3.5639,6.9588 5.3492,17.4459 5.3492,31.2909 0,13.7879 -1.7854,24.2498 -5.3491,31.2155 -3.5991,7.0349 -9.1972,10.6823 -16.433,10.6823 -7.1795,0 -12.7484,-3.6482 -16.3472,-10.6823 -3.5637,-6.9657 -5.349,-17.4276 -5.349,-31.2155 0,-13.845 1.7853,-24.3321 5.3492,-31.2909 3.5988,-7.0269 9.1677,-10.6713 16.347,-10.6713 z m 0,-10.7375 c 11.4092,0 20.3007,4.6001 26.328,13.6311 5.9988,8.9882 9.0089,22.0827 9.0089,39.0686 0,16.9431 -3.0102,30.0161 -9.0089,39.0042 -6.0273,9.031 -14.9188,13.6311 -26.328,13.6311 -11.3951,0 -20.2794,-4.6002 -26.3066,-13.6311 -5.9987,-8.9881 -9.0089,-22.0611 -9.0089,-39.0042 0,-16.9859 3.0101,-30.0804 9.0089,-39.0686 6.0272,-9.0309 14.9115,-13.6311 26.3066,-13.6311 z m 0,1.3744 c -11.0602,0 -19.3324,4.2833 -25.1629,13.0195 -5.859,8.7787 -8.7778,21.4758 -8.7778,38.3058 0,16.787 2.9187,29.4626 8.7778,38.2414 5.8305,8.7362 14.1027,13.0195 25.1629,13.0195 11.0746,0 19.3539,-4.2834 25.1844,-13.0195 5.859,-8.7788 8.7777,-21.4544 8.7777,-38.2414 0,-16.83 -2.9188,-29.5271 -8.7777,-38.3058 -5.8305,-8.7361 -14.1098,-13.0195 -25.1844,-13.0195 z m 87.9878,10.7375 c -6.7693,0 -11.6905,3.2205 -15.1232,9.9233 -3.4677,6.7709 -5.1982,16.9356 -5.1982,30.6645 0,13.6715 1.7304,23.8113 5.1983,30.5896 3.4329,6.71 8.354,9.9338 15.1231,9.9338 6.8274,0 11.7766,-3.2246 15.2091,-9.9338 3.4678,-6.7783 5.1983,-16.9181 5.1983,-30.5896 0,-13.7289 -1.7305,-23.8936 -5.1982,-30.6645 -3.4324,-6.702 -8.3817,-9.9233 -15.2092,-9.9233 z m 0,-1.3744 c 7.2356,0 12.8337,3.6436 16.4329,10.6713 3.5639,6.9588 5.3493,17.4459 5.3493,31.2909 0,13.7879 -1.7854,24.2498 -5.3491,31.2155 -3.5992,7.0349 -9.1973,10.6823 -16.4331,10.6823 -7.1794,0 -12.7484,-3.6482 -16.3471,-10.6823 -3.5637,-6.9657 -5.3491,-17.4276 -5.3491,-31.2155 0,-13.845 1.7853,-24.3321 5.3492,-31.2909 3.5988,-7.0269 9.1677,-10.6713 16.347,-10.6713 z m 0,-10.7375 c 11.4093,0 20.3008,4.6001 26.328,13.6311 5.9988,8.9882 9.0089,22.0827 9.0089,39.0686 0,16.9431 -3.0102,30.0161 -9.0089,39.0042 -6.0272,9.031 -14.9187,13.6311 -26.328,13.6311 -11.3951,0 -20.2793,-4.6002 -26.3065,-13.6311 -5.9987,-8.9881 -9.0089,-22.0611 -9.0089,-39.0042 0,-16.9859 3.0101,-30.0804 9.0089,-39.0686 6.0272,-9.0309 14.9114,-13.6311 26.3065,-13.6311 z m 0,1.3744 c -11.0601,0 -19.3324,4.2833 -25.1629,13.0195 -5.8589,8.7787 -8.7777,21.4758 -8.7777,38.3058 0,16.787 2.9187,29.4626 8.7777,38.2414 5.8305,8.7362 14.1028,13.0195 25.1629,13.0195 11.0746,0 19.3539,-4.2834 25.1844,-13.0195 5.859,-8.7788 8.7777,-21.4544 8.7777,-38.2414 0,-16.83 -2.9187,-29.5271 -8.7777,-38.3058 -5.8305,-8.7361 -14.1098,-13.0195 -25.1844,-13.0195 z" /></g></g><g
         transform="matrix(0,2.8293782,2.8285368,0,-7.5850097,-124.83849)"
         id="g584"><path
           inkscape:connector-curvature="0"
           id="path586"
           style="fill:none;stroke:#0000ff;stroke-width:0.2;stroke-linecap:butt;stroke-linejoin:miter;stroke-miterlimit:10;stroke-dasharray:none;stroke-opacity:1"
           d="m 148.5,132 0,7.47567" /><path
           inkscape:connector-curvature="0"
           id="path588"
           style="fill:none;stroke:#0000ff;stroke-width:0.2;stroke-linecap:butt;stroke-linejoin:miter;stroke-miterlimit:10;stroke-dasharray:none;stroke-opacity:1"
           d="m 238.5,132 0,7.47567" /><path
           inkscape:connector-curvature="0"
           id="path590"
           style="fill:none;stroke:#0000ff;stroke-width:0.2;stroke-linecap:butt;stroke-linejoin:miter;stroke-miterlimit:10;stroke-dasharray:none;stroke-opacity:1"
           d="m 148.5,138.47567 90,0" /></g><g
         transform="matrix(0,0.06174042,0.06174042,0,-8.3843317,-125.63781)"
         id="g592"><path
           inkscape:connector-curvature="0"
           id="path594"
           style="fill:#0000ff;fill-opacity:1;fill-rule:nonzero;stroke:none"
           d="m 10942.686,6356.984 -137.48,-34.36 0,34.36 0,34.3601 137.48,-34.3601 z" /><path
           inkscape:connector-curvature="0"
           id="path596"
           style="fill:#0000ff;fill-opacity:1;fill-rule:nonzero;stroke:none"
           d="m 6818.2563,6356.984 137.481,34.3601 0,-34.3601 0,-34.36 -137.481,34.36 z" /></g><g
         transform="matrix(0,0.06174042,0.06174042,0,-8.3843317,-125.63781)"
         id="g600"><path
           inkscape:connector-curvature="0"
           id="path602"
           style="fill:#0000ff;fill-opacity:1;fill-rule:nonzero;stroke:none"
           d="m 8595.4561,6253.9521 47.3235,0 0,11.4033 -63.6279,0 0,-11.4033 c 5.1412,-5.3258 12.1549,-12.4734 21.041,-21.4428 8.8862,-8.9694 14.4678,-14.7569 16.7448,-17.3625 4.3392,-4.8677 7.3717,-8.9909 9.0974,-12.3697 1.7257,-3.3787 2.5885,-6.7002 2.5885,-9.9644 0,-5.3258 -1.8689,-9.6673 -5.6067,-13.0246 -3.7377,-3.3572 -8.6068,-5.0358 -14.6073,-5.0358 -4.2533,0 -8.7394,0.7373 -13.4581,2.2119 -4.7188,1.4746 -9.7633,3.7152 -15.1337,6.7217 l 0,-13.7011 c 5.4563,-2.1905 10.5581,-3.844 15.3055,-4.9607 4.7474,-1.1167 9.0903,-1.6751 13.0285,-1.6751 10.3827,0 18.6602,2.5949 24.8325,7.7847 6.1723,5.1898 9.2585,12.1227 9.2585,20.7986 0,4.1232 -0.7697,8.028 -2.3092,11.7146 -1.5395,3.6865 -4.35,8.0352 -8.4315,13.0461 -1.117,1.3028 -4.6722,5.0537 -10.6655,11.2529 -5.9933,6.1991 -14.4534,14.8678 -25.3803,26.0062 z m 70.2657,-88.7992 14.5644,0 24.9184,37.2592 25.0258,-37.2592 14.5644,0 -32.2221,48.1255 34.3703,52.077 -14.5644,0 -28.1836,-42.6065 -28.3984,42.6065 -14.6289,0 35.7666,-53.4943 -31.2125,-46.7082 z m 145.3002,98.1194 0,-12.3482 c 3.4084,1.6178 6.8562,2.8491 10.3433,3.6937 3.4872,0.8447 6.9135,1.2671 10.2789,1.2671 8.9506,0 15.7852,-3.0065 20.504,-9.0195 4.7187,-6.013 7.4146,-15.1542 8.0877,-27.4236 -2.5921,3.8511 -5.8823,6.8075 -9.8707,8.8691 -3.9884,2.0616 -8.3956,3.0924 -13.2218,3.0924 -10.0246,0 -17.9584,-3.0315 -23.8014,-9.0946 -5.8429,-6.0631 -8.7644,-14.3561 -8.7644,-24.8788 0,-10.2794 3.0432,-18.5294 9.1296,-24.75 6.0864,-6.2206 14.1849,-9.3309 24.2955,-9.3309 11.5999,0 20.4538,4.4418 26.5617,13.3253 6.1079,8.8835 9.1618,21.7792 9.1618,38.6872 0,15.7913 -3.7485,28.3971 -11.2455,37.8175 -7.497,9.4204 -17.5754,14.1306 -30.2351,14.1306 -3.4083,0 -6.8561,-0.3365 -10.3432,-1.0093 -3.4872,-0.6729 -7.114,-1.6823 -10.8804,-3.028 z m 26.9807,-42.4776 c 6.0864,0 10.9089,-2.0795 14.4677,-6.2385 3.5587,-4.159 5.3381,-9.8678 5.3381,-17.1263 0,-7.2013 -1.7794,-12.8922 -5.3381,-17.0727 -3.5588,-4.1804 -8.3813,-6.2707 -14.4677,-6.2707 -6.0864,0 -10.9054,2.0903 -14.457,6.2707 -3.5516,4.1805 -5.3274,9.8714 -5.3274,17.0727 0,7.2585 1.7758,12.9673 5.3274,17.1263 3.5516,4.159 8.3706,6.2385 14.457,6.2385 z m 89.5989,-46.7082 c -6.9743,0 -12.2193,3.4324 -15.7351,10.2973 -3.5158,6.8648 -5.2737,17.1907 -5.2737,30.9777 0,13.7297 1.7579,24.0306 5.2737,30.9026 3.5158,6.872 8.7608,10.308 15.7351,10.308 7.0316,0 12.3053,-3.436 15.8211,-10.308 3.5158,-6.872 5.2737,-17.1729 5.2737,-30.9026 0,-13.787 -1.7579,-24.1129 -5.2737,-30.9777 -3.5158,-6.8649 -8.7895,-10.2973 -15.8211,-10.2973 z m 0,-10.7375 c 11.242,0 19.8274,4.4418 25.7562,13.3253 5.9289,8.8835 8.8933,21.7792 8.8933,38.6872 0,16.8651 -2.9644,29.7393 -8.8933,38.6228 -5.9288,8.8835 -14.5142,13.3253 -25.7562,13.3253 -11.2276,0 -19.8058,-4.4418 -25.7347,-13.3253 -5.9289,-8.8835 -8.8933,-21.7577 -8.8933,-38.6228 0,-16.908 2.9644,-29.8037 8.8933,-38.6872 5.9289,-8.8835 14.5071,-13.3253 25.7347,-13.3253 z m 58.988,84.9552 14.1777,0 0,17.0512 -14.1777,0 0,-17.0512 z m 72.9938,-74.2177 c -6.9743,0 -12.2194,3.4324 -15.7351,10.2973 -3.5158,6.8648 -5.2737,17.1907 -5.2737,30.9777 0,13.7297 1.7579,24.0306 5.2737,30.9026 3.5157,6.872 8.7608,10.308 15.7351,10.308 7.0316,0 12.3052,-3.436 15.821,-10.308 3.5158,-6.872 5.2737,-17.1729 5.2737,-30.9026 0,-13.787 -1.7579,-24.1129 -5.2737,-30.9777 -3.5158,-6.8649 -8.7894,-10.2973 -15.821,-10.2973 z m 0,-10.7375 c 11.2419,0 19.8273,4.4418 25.7562,13.3253 5.9289,8.8835 8.8933,21.7792 8.8933,38.6872 0,16.8651 -2.9644,29.7393 -8.8933,38.6228 -5.9289,8.8835 -14.5143,13.3253 -25.7562,13.3253 -11.2276,0 -19.8059,-4.4418 -25.7347,-13.3253 -5.9289,-8.8835 -8.8934,-21.7577 -8.8934,-38.6228 0,-16.908 2.9645,-29.8037 8.8934,-38.6872 5.9288,-8.8835 14.5071,-13.3253 25.7347,-13.3253 z m 87.9878,10.7375 c -6.9743,0 -12.2193,3.4324 -15.7351,10.2973 -3.5158,6.8648 -5.2737,17.1907 -5.2737,30.9777 0,13.7297 1.7579,24.0306 5.2737,30.9026 3.5158,6.872 8.7608,10.308 15.7351,10.308 7.0316,0 12.3053,-3.436 15.8211,-10.308 3.5158,-6.872 5.2737,-17.1729 5.2737,-30.9026 0,-13.787 -1.7579,-24.1129 -5.2737,-30.9777 -3.5158,-6.8649 -8.7895,-10.2973 -15.8211,-10.2973 z m 0,-10.7375 c 11.242,0 19.8274,4.4418 25.7562,13.3253 5.9289,8.8835 8.8933,21.7792 8.8933,38.6872 0,16.8651 -2.9644,29.7393 -8.8933,38.6228 -5.9288,8.8835 -14.5142,13.3253 -25.7562,13.3253 -11.2276,0 -19.8058,-4.4418 -25.7347,-13.3253 -5.9289,-8.8835 -8.8933,-21.7577 -8.8933,-38.6228 0,-16.908 2.9644,-29.8037 8.8933,-38.6872 5.9289,-8.8835 14.5071,-13.3253 25.7347,-13.3253 z" /><g
           id="g604"><path
             inkscape:connector-curvature="0"
             id="path606"
             style="fill:#0000ff;fill-opacity:1;fill-rule:nonzero;stroke:none"
             d="m 8595.4561,6253.2649 47.3235,0 0.6874,0 0,0.6872 0,11.4033 0,0.6872 -0.6874,0 -63.6279,0 -0.6874,0 0,-0.6872 0,-11.4033 0,-0.2775 0.1928,-0.1997 c 5.1431,-5.3278 12.1599,-12.4786 21.0472,-21.4492 8.8829,-8.9661 14.4496,-14.7381 16.7155,-17.3311 l 0,0 0,0 c 4.3178,-4.8436 7.2981,-8.8959 8.9984,-12.225 1.6914,-3.3117 2.5133,-6.4754 2.5133,-9.6519 0,-5.1842 -1.7532,-9.257 -5.3787,-12.5134 -3.6341,-3.2642 -8.2626,-4.8599 -14.1479,-4.8599 -4.1972,0 -8.5803,0.7204 -13.253,2.1807 -4.681,1.4628 -9.6603,3.6744 -15.0029,6.6653 l -1.0233,0.5729 0,-1.1724 0,-13.7011 0,-0.4646 0.4313,-0.1731 c 5.4781,-2.1992 10.6292,-3.8688 15.4042,-4.992 4.7819,-1.1248 9.2036,-1.6933 13.1859,-1.6933 10.4879,0 18.9973,2.6676 25.275,7.946 6.2935,5.2917 9.5034,12.5025 9.5034,21.3245 0,4.1902 -0.7961,8.2289 -2.3623,11.9793 -1.5632,3.7432 -4.4274,8.1752 -8.5328,13.2153 l -0.01,0.01 -0.01,0.01 c -1.1282,1.3158 -4.6975,5.0817 -10.6931,11.2833 -5.9945,6.2002 -14.4563,14.8708 -25.3838,26.0098 l -0.4908,-0.4812 0,-0.6872 z m -0.4908,0.206 c 10.9263,-11.1377 19.3846,-19.8046 25.3768,-26.0026 5.991,-6.1967 9.532,-9.9327 10.6379,-11.2226 l 0.5219,0.4473 -0.533,-0.434 c 4.0576,-4.9815 6.8143,-9.2469 8.3301,-12.8768 1.5128,-3.6227 2.2562,-7.3938 2.2562,-11.4499 0,-8.5299 -2.9624,-15.1848 -9.0135,-20.2727 -6.067,-5.1012 -14.1127,-7.6234 -24.3901,-7.6234 -3.8942,0 -8.1582,0.5482 -12.871,1.6568 -4.7198,1.1102 -9.7723,2.7478 -15.2068,4.9295 l -0.2562,-0.6377 0.6874,0 0,13.7011 -0.6874,0 -0.3358,-0.5996 c 5.398,-3.022 10.5078,-5.2916 15.2644,-6.778 4.7648,-1.489 9.3537,-2.2433 13.6632,-2.2433 6.1157,0 11.2254,1.7616 15.0667,5.212 3.8501,3.4581 5.8347,8.0683 5.8347,13.5357 0,3.352 -0.9038,6.8312 -2.6637,10.2769 -1.751,3.4284 -4.8357,7.6226 -9.1964,12.5144 l -0.5132,-0.4572 0.5177,0.4521 c -2.2881,2.6183 -7.8847,8.4213 -16.7741,17.394 -8.8849,8.9682 -15.8955,16.1126 -21.0348,21.4364 l -0.4946,-0.4772 0.6874,0 0,11.4033 -0.6874,0 0,-0.6872 63.6279,0 0,0.6872 -0.6874,0 0,-11.4033 0.6874,0 0,0.6872 -47.3235,0 -1.637,0 1.1462,-1.1684 z m 70.7565,-89.0052 14.5644,0 0.3673,0 0.2041,0.3053 24.9185,37.2591 -0.5715,0.382 -0.5707,-0.3831 25.0259,-37.2592 0.2042,-0.3041 0.3664,0 14.5644,0 1.2873,0 -0.716,1.0695 -32.2221,48.1255 -0.5713,-0.3823 0.5738,-0.3784 34.3703,52.0769 0.7033,1.0657 -1.2771,0 -14.5644,0 -0.3696,0 -0.2038,-0.3082 -28.1836,-42.6064 0.5734,-0.3791 0.572,0.3811 -28.3984,42.6064 -0.204,0.3062 -0.368,0 -14.6289,0 -1.2863,0 0.7148,-1.0691 35.7666,-53.4943 0.5715,0.3819 -0.5716,0.3817 -31.2125,-46.7081 -0.7143,-1.069 1.2859,0 z m 0.5716,0.3055 31.2125,46.7081 0.2551,0.3819 -0.2552,0.3818 -35.7666,53.4942 -0.5715,-0.3818 0,-0.6872 14.6289,0 0,0.6872 -0.5721,-0.3811 28.3984,-42.6064 0.5743,-0.8615 0.5712,0.8635 28.1836,42.6064 -0.5734,0.3791 0,-0.6872 14.5644,0 0,0.6872 -0.5738,0.3784 -34.3702,-52.0769 -0.2516,-0.3812 0.2541,-0.3795 32.2221,-48.1255 0.5712,0.3822 0,0.6872 -14.5644,0 0,-0.6872 0.5707,0.3831 -25.0258,37.2592 -0.5719,0.8515 -0.5702,-0.8527 -24.9185,-37.2591 0.5715,-0.382 0,0.6872 -14.5644,0 0,-0.6872 0.5716,-0.3817 z m 144.0412,98.5011 0,-12.3482 0,-1.087 0.9822,0.4663 c 3.3773,1.603 6.7585,2.8104 10.2104,3.6466 3.4487,0.8353 6.7938,1.2477 10.117,1.2477 8.806,0 15.3507,-2.879 19.9631,-8.7565 4.6375,-5.9094 7.2736,-14.8476 7.9423,-27.0371 l 0.6863,0.038 0.5703,0.3836 c -2.6396,3.9218 -6.0586,6.9939 -10.1253,9.096 -4.0643,2.1008 -8.632,3.1691 -13.5375,3.1691 -10.1515,0 -18.3471,-3.1315 -24.2964,-9.305 -5.9467,-6.1707 -8.9568,-14.7154 -8.9568,-25.3556 0,-10.4021 3.1365,-18.9049 9.3256,-25.2305 6.1913,-6.3278 14.5488,-9.5376 24.7869,-9.5376 11.7627,0 20.9202,4.594 27.1282,13.6232 6.1807,8.9894 9.2828,22.0883 9.2828,39.0765 0,15.8913 -3.815,28.7207 -11.395,38.2454 -7.5976,9.5467 -17.9606,14.3899 -30.7731,14.3899 -3.4418,0 -6.9548,-0.3428 -10.4735,-1.0218 -3.5145,-0.6781 -7.1918,-1.7015 -10.9814,-3.0556 l -0.4561,-0.163 0,-0.4841 z m 0.9188,-0.6471 c 3.7431,1.3374 7.3194,2.3327 10.7792,3.0003 3.4556,0.6668 6.8381,0.9969 10.213,0.9969 12.507,0 22.3007,-4.5772 29.6972,-13.8712 7.414,-9.3161 11.096,-21.6984 11.096,-37.3897 0,-16.8278 -3.0058,-29.5204 -9.0409,-38.298 -6.0077,-8.7378 -14.5581,-13.0273 -25.9952,-13.0273 -9.9831,0 -17.8226,3.0108 -23.8041,9.1242 -5.9837,6.1156 -8.9336,14.1128 -8.9336,24.2695 0,10.4053 2.8328,18.4465 8.5721,24.402 5.7365,5.9527 13.4085,8.8842 23.3063,8.8842 4.7468,0 8.9936,-0.9932 12.9061,-3.0156 3.9101,-2.0211 7.0715,-4.8618 9.6161,-8.6424 l 1.3934,-2.0702 -0.1367,2.4915 c -0.6775,12.3493 -3.4333,21.6936 -8.2333,27.8101 -4.8251,6.1485 -11.9497,9.2826 -21.0448,9.2826 -3.4077,0 -6.9151,-0.4324 -10.4408,-1.2864 -3.5223,-0.8532 -7.0367,-2.1082 -10.4762,-3.7408 l 0.2948,-0.6208 0.6874,0 0,12.3482 -0.6874,0 0.2314,-0.6471 z m 26.7493,-42.5177 c 5.9444,0 10.4902,-1.9602 13.9453,-5.998 3.4669,-4.0516 5.1731,-9.5257 5.1731,-16.6796 0,-7.0964 -1.7063,-12.5535 -5.1742,-16.6273 -3.4552,-4.0589 -8.0004,-6.0289 -13.9442,-6.0289 -5.9437,0 -10.4851,1.9698 -13.9331,6.0284 -3.461,4.0738 -5.1639,9.5312 -5.1639,16.6278 0,7.1541 1.7029,12.6285 5.1628,16.6801 3.4479,4.0375 7.9898,5.9975 13.9342,5.9975 z m 0,1.3744 c -6.2285,0 -11.3245,-2.1991 -14.9798,-6.4795 -3.6433,-4.2664 -5.492,-10.2096 -5.492,-17.5725 0,-7.306 1.8486,-13.2304 5.4908,-17.5175 3.6552,-4.3024 8.7519,-6.5131 14.981,-6.5131 6.229,0 11.3289,2.2105 14.9912,6.5126 3.6495,4.2871 5.502,10.2118 5.502,17.518 0,7.3631 -1.8525,13.3066 -5.5031,17.573 -3.6625,4.2802 -8.7618,6.479 -14.9901,6.479 z m 89.5989,-46.7082 c -6.7693,0 -11.6905,3.2205 -15.1233,9.9233 -3.4676,6.7709 -5.1981,16.9356 -5.1981,30.6645 0,13.6715 1.7304,23.8113 5.1983,30.5896 3.4329,6.71 8.354,9.9338 15.1231,9.9338 6.8274,0 11.7766,-3.2246 15.2091,-9.9338 3.4678,-6.7783 5.1983,-16.9181 5.1983,-30.5896 0,-13.7289 -1.7305,-23.8936 -5.1982,-30.6645 -3.4324,-6.702 -8.3817,-9.9233 -15.2092,-9.9233 z m 0,-1.3744 c 7.2356,0 12.8337,3.6436 16.4329,10.6713 3.5639,6.9588 5.3493,17.4459 5.3493,31.2909 0,13.7879 -1.7854,24.2498 -5.3491,31.2155 -3.5992,7.0349 -9.1973,10.6823 -16.4331,10.6823 -7.1794,0 -12.7484,-3.6482 -16.3471,-10.6823 -3.5637,-6.9657 -5.3491,-17.4276 -5.3491,-31.2155 0,-13.845 1.7853,-24.3321 5.3492,-31.2909 3.5988,-7.0269 9.1677,-10.6713 16.347,-10.6713 z m 0,-10.7375 c 11.4093,0 20.3008,4.6001 26.328,13.6311 5.9988,8.9882 9.0089,22.0827 9.0089,39.0686 0,16.9431 -3.0102,30.0161 -9.0089,39.0042 -6.0272,9.031 -14.9187,13.6311 -26.328,13.6311 -11.3951,0 -20.2793,-4.6002 -26.3065,-13.6311 -5.9987,-8.9881 -9.0089,-22.0611 -9.0089,-39.0042 0,-16.9859 3.0101,-30.0804 9.0089,-39.0686 6.0272,-9.0309 14.9114,-13.6311 26.3065,-13.6311 z m 0,1.3744 c -11.0601,0 -19.3324,4.2833 -25.1629,13.0195 -5.8589,8.7787 -8.7777,21.4758 -8.7777,38.3058 0,16.787 2.9187,29.4626 8.7777,38.2414 5.8305,8.7362 14.1028,13.0195 25.1629,13.0195 11.0746,0 19.3539,-4.2834 25.1844,-13.0195 5.859,-8.7788 8.7777,-21.4544 8.7777,-38.2414 0,-16.83 -2.9187,-29.5271 -8.7777,-38.3058 -5.8305,-8.7361 -14.1098,-13.0195 -25.1844,-13.0195 z m 58.988,83.5808 14.1777,0 0.6874,0 0,0.6872 0,17.0512 0,0.6872 -0.6874,0 -14.1777,0 -0.6874,0 0,-0.6872 0,-17.0512 0,-0.6872 0.6874,0 z m 0.6874,0.6872 0,17.0512 -0.6874,0 0,-0.6872 14.1777,0 0,0.6872 -0.6874,0 0,-17.0512 0.6874,0 0,0.6872 -14.1777,0 0,-0.6872 0.6874,0 z m 72.3064,-73.5305 c -6.7693,0 -11.6905,3.2205 -15.1233,9.9233 -3.4677,6.7709 -5.1981,16.9356 -5.1981,30.6645 0,13.6715 1.7304,23.8113 5.1983,30.5896 3.4328,6.71 8.3539,9.9338 15.1231,9.9338 6.8273,0 11.7766,-3.2246 15.209,-9.9338 3.4679,-6.7783 5.1983,-16.9181 5.1983,-30.5896 0,-13.7289 -1.7304,-23.8936 -5.1981,-30.6645 -3.4324,-6.702 -8.3817,-9.9233 -15.2092,-9.9233 z m 0,-1.3744 c 7.2356,0 12.8337,3.6436 16.4329,10.6713 3.5639,6.9588 5.3492,17.4459 5.3492,31.2909 0,13.7879 -1.7854,24.2498 -5.3491,31.2155 -3.5991,7.0349 -9.1972,10.6823 -16.433,10.6823 -7.1795,0 -12.7484,-3.6482 -16.3472,-10.6823 -3.5637,-6.9657 -5.349,-17.4276 -5.349,-31.2155 0,-13.845 1.7853,-24.3321 5.3492,-31.2909 3.5988,-7.0269 9.1677,-10.6713 16.347,-10.6713 z m 0,-10.7375 c 11.4093,0 20.3007,4.6001 26.328,13.6311 5.9988,8.9882 9.0089,22.0827 9.0089,39.0686 0,16.9431 -3.0102,30.0161 -9.0089,39.0042 -6.0273,9.031 -14.9187,13.6311 -26.328,13.6311 -11.3951,0 -20.2794,-4.6002 -26.3066,-13.6311 -5.9987,-8.9881 -9.0089,-22.0611 -9.0089,-39.0042 0,-16.9859 3.0102,-30.0804 9.0089,-39.0686 6.0272,-9.0309 14.9115,-13.6311 26.3066,-13.6311 z m 0,1.3744 c -11.0602,0 -19.3324,4.2833 -25.1629,13.0195 -5.859,8.7787 -8.7777,21.4758 -8.7777,38.3058 0,16.787 2.9186,29.4626 8.7777,38.2414 5.8305,8.7362 14.1027,13.0195 25.1629,13.0195 11.0746,0 19.3539,-4.2834 25.1844,-13.0195 5.859,-8.7788 8.7777,-21.4544 8.7777,-38.2414 0,-16.83 -2.9188,-29.5271 -8.7777,-38.3058 -5.8305,-8.7361 -14.1098,-13.0195 -25.1844,-13.0195 z m 87.9878,10.7375 c -6.7693,0 -11.6904,3.2205 -15.1232,9.9233 -3.4677,6.7709 -5.1982,16.9356 -5.1982,30.6645 0,13.6715 1.7304,23.8113 5.1983,30.5896 3.4329,6.71 8.354,9.9338 15.1231,9.9338 6.8274,0 11.7766,-3.2246 15.2091,-9.9338 3.4679,-6.7783 5.1983,-16.9181 5.1983,-30.5896 0,-13.7289 -1.7305,-23.8936 -5.1982,-30.6645 -3.4324,-6.702 -8.3816,-9.9233 -15.2092,-9.9233 z m 0,-1.3744 c 7.2356,0 12.8337,3.6436 16.433,10.6713 3.5638,6.9588 5.3492,17.4459 5.3492,31.2909 0,13.7879 -1.7854,24.2498 -5.3491,31.2155 -3.5992,7.0349 -9.1973,10.6823 -16.4331,10.6823 -7.1794,0 -12.7484,-3.6482 -16.3471,-10.6823 -3.5637,-6.9657 -5.3491,-17.4276 -5.3491,-31.2155 0,-13.845 1.7853,-24.3321 5.3492,-31.2909 3.5988,-7.0269 9.1677,-10.6713 16.347,-10.6713 z m 0,-10.7375 c 11.4093,0 20.3008,4.6001 26.328,13.6311 5.9988,8.9882 9.0089,22.0827 9.0089,39.0686 0,16.9431 -3.0101,30.0161 -9.0089,39.0042 -6.0272,9.031 -14.9187,13.6311 -26.328,13.6311 -11.3951,0 -20.2793,-4.6002 -26.3065,-13.6311 -5.9987,-8.9881 -9.0089,-22.0611 -9.0089,-39.0042 0,-16.9859 3.0101,-30.0804 9.0089,-39.0686 6.0272,-9.0309 14.9114,-13.6311 26.3065,-13.6311 z m 0,1.3744 c -11.0601,0 -19.3324,4.2833 -25.1629,13.0195 -5.8589,8.7787 -8.7777,21.4758 -8.7777,38.3058 0,16.787 2.9187,29.4626 8.7777,38.2414 5.8305,8.7362 14.1028,13.0195 25.1629,13.0195 11.0746,0 19.3539,-4.2834 25.1844,-13.0195 5.859,-8.7788 8.7777,-21.4544 8.7777,-38.2414 0,-16.83 -2.9187,-29.5271 -8.7777,-38.3058 -5.8305,-8.7361 -14.1098,-13.0195 -25.1844,-13.0195 z" /></g></g><g
         transform="matrix(0,2.8293782,2.8285368,0,-7.5850097,-124.83849)"
         id="g610"><path
           inkscape:connector-curvature="0"
           id="path612"
           style="fill:none;stroke:#0000ff;stroke-width:0.2;stroke-linecap:butt;stroke-linejoin:miter;stroke-miterlimit:10;stroke-dasharray:none;stroke-opacity:1"
           d="m 148.5,128 0,17.97452" /><path
           inkscape:connector-curvature="0"
           id="path614"
           style="fill:none;stroke:#0000ff;stroke-width:0.2;stroke-linecap:butt;stroke-linejoin:miter;stroke-miterlimit:10;stroke-dasharray:none;stroke-opacity:1"
           d="m 54.5,131 0,14.97452" /><path
           inkscape:connector-curvature="0"
           id="path616"
           style="fill:none;stroke:#0000ff;stroke-width:0.2;stroke-linecap:butt;stroke-linejoin:miter;stroke-miterlimit:10;stroke-dasharray:none;stroke-opacity:1"
           d="m 148.5,144.97452 -94,0" /></g><g
         transform="matrix(0,0.06174042,0.06174042,0,-8.3843317,-125.63781)"
         id="g618"><path
           inkscape:connector-curvature="0"
           id="path620"
           style="fill:#0000ff;fill-opacity:1;fill-rule:nonzero;stroke:none"
           d="m 2510.5181,6654.7186 137.481,34.3601 0,-34.3601 0,-34.36 -137.481,34.36 z" /><path
           inkscape:connector-curvature="0"
           id="path622"
           style="fill:#0000ff;fill-opacity:1;fill-rule:nonzero;stroke:none"
           d="m 6818.2563,6654.7186 -137.481,-34.36 0,34.36 0,34.3601 137.481,-34.3601 z" /></g><g
         transform="matrix(0,0.06174042,0.06174042,0,-8.3843317,-125.63781)"
         id="g626"><path
           inkscape:connector-curvature="0"
           id="path628"
           style="fill:#0000ff;fill-opacity:1;fill-rule:nonzero;stroke:none"
           d="m 4525.5027,6561.0019 0,-12.3481 c 3.4084,1.6178 6.8562,2.849 10.3433,3.6937 3.4872,0.8447 6.9135,1.267 10.2789,1.267 8.9506,0 15.7852,-3.0065 20.504,-9.0195 4.7187,-6.013 7.4147,-15.1542 8.0877,-27.4236 -2.592,3.8512 -5.8823,6.8076 -9.8707,8.8692 -3.9883,2.0616 -8.3956,3.0924 -13.2218,3.0924 -10.0246,0 -17.9584,-3.0315 -23.8014,-9.0947 -5.8429,-6.0631 -8.7644,-14.356 -8.7644,-24.8788 0,-10.2793 3.0432,-18.5293 9.1296,-24.7499 6.0864,-6.2206 14.1849,-9.3309 24.2955,-9.3309 11.5999,0 20.4539,4.4417 26.5617,13.3252 6.1079,8.8835 9.1619,21.7793 9.1619,38.6873 0,15.7913 -3.7485,28.3971 -11.2456,37.8175 -7.497,9.4204 -17.5753,14.1305 -30.235,14.1305 -3.4084,0 -6.8562,-0.3364 -10.3433,-1.0093 -3.4872,-0.6729 -7.114,-1.6822 -10.8804,-3.028 z m 26.9807,-42.4775 c 6.0864,0 10.909,-2.0795 14.4677,-6.2385 3.5588,-4.159 5.3381,-9.8678 5.3381,-17.1264 0,-7.2013 -1.7793,-12.8921 -5.3381,-17.0726 -3.5587,-4.1805 -8.3813,-6.2707 -14.4677,-6.2707 -6.0864,0 -10.9054,2.0902 -14.457,6.2707 -3.5516,4.1805 -5.3274,9.8713 -5.3274,17.0726 0,7.2586 1.7758,12.9674 5.3274,17.1264 3.5516,4.159 8.3706,6.2385 14.457,6.2385 z m 97.8693,-43.8306 -34.2414,53.4943 34.2414,0 0,-53.4943 z m -3.5659,-11.8112 17.0562,0 0,65.3055 14.3066,0 0,11.2744 -14.3066,0 0,23.6225 -13.4903,0 0,-23.6225 -45.2399,0 0,-13.0783 41.674,-63.5016 z m 54.2835,83.1513 14.1777,0 0,17.0511 -14.1777,0 0,-17.0511 z m 72.9938,-74.2177 c -6.9743,0 -12.2193,3.4324 -15.7351,10.2973 -3.5158,6.8648 -5.2737,17.1907 -5.2737,30.9777 0,13.7297 1.7579,24.0305 5.2737,30.9025 3.5158,6.872 8.7608,10.308 15.7351,10.308 7.0316,0 12.3053,-3.436 15.8211,-10.308 3.5157,-6.872 5.2736,-17.1728 5.2736,-30.9025 0,-13.787 -1.7579,-24.1129 -5.2736,-30.9777 -3.5158,-6.8649 -8.7895,-10.2973 -15.8211,-10.2973 z m 0,-10.7375 c 11.2419,0 19.8273,4.4417 25.7562,13.3252 5.9289,8.8835 8.8933,21.7793 8.8933,38.6873 0,16.865 -2.9644,29.7393 -8.8933,38.6228 -5.9289,8.8835 -14.5143,13.3252 -25.7562,13.3252 -11.2276,0 -19.8059,-4.4417 -25.7347,-13.3252 -5.9289,-8.8835 -8.8933,-21.7578 -8.8933,-38.6228 0,-16.908 2.9644,-29.8038 8.8933,-38.6873 5.9288,-8.8835 14.5071,-13.3252 25.7347,-13.3252 z" /><g
           id="g630"><path
             inkscape:connector-curvature="0"
             id="path632"
             style="fill:#0000ff;fill-opacity:1;fill-rule:nonzero;stroke:none"
             d="m 4524.8153,6561.0019 0,-12.3481 0,-1.087 0.9823,0.4662 c 3.3772,1.603 6.7584,2.8105 10.2103,3.6466 3.4487,0.8354 6.7938,1.2477 10.117,1.2477 8.806,0 15.3507,-2.8789 19.9632,-8.7564 4.6374,-5.9095 7.2735,-14.8476 7.9422,-27.0371 l 0.6863,0.038 0.5704,0.3837 c -2.6396,3.9217 -6.0587,6.9939 -10.1253,9.096 -4.0643,2.1008 -8.6321,3.1691 -13.5376,3.1691 -10.1515,0 -18.3471,-3.1316 -24.2964,-9.3051 -5.9466,-6.1707 -8.9568,-14.7153 -8.9568,-25.3556 0,-10.402 3.1365,-18.9049 9.3256,-25.2304 6.1913,-6.3278 14.5488,-9.5376 24.7869,-9.5376 11.7627,0 20.9202,4.594 27.1282,13.6232 6.1807,8.9894 9.2828,22.0882 9.2828,39.0765 0,15.8913 -3.815,28.7207 -11.395,38.2453 -7.5976,9.5467 -17.9606,14.3899 -30.773,14.3899 -3.4419,0 -6.9549,-0.3428 -10.4736,-1.0217 -3.5145,-0.6782 -7.1918,-1.7016 -10.9814,-3.0556 l -0.4561,-0.163 0,-0.4842 z m 0.9188,-0.6471 c 3.7432,1.3375 7.3194,2.3328 10.7792,3.0004 3.4557,0.6668 6.8382,0.9969 10.2131,0.9969 12.5069,0 22.3006,-4.5772 29.6971,-13.8713 7.414,-9.316 11.0961,-21.6983 11.0961,-37.3896 0,-16.8278 -3.0059,-29.5204 -9.0409,-38.298 -6.0078,-8.7378 -14.5582,-13.0273 -25.9953,-13.0273 -9.9831,0 -17.8226,3.0108 -23.8041,9.1242 -5.9837,6.1156 -8.9336,14.1127 -8.9336,24.2694 0,10.4053 2.8328,18.4465 8.5721,24.4021 5.7365,5.9527 13.4086,8.8842 23.3063,8.8842 4.7468,0 8.9936,-0.9933 12.9061,-3.0156 3.9101,-2.0212 7.0715,-4.8618 9.6161,-8.6424 l 1.3934,-2.0702 -0.1367,2.4915 c -0.6775,12.3493 -3.4333,21.6935 -8.2333,27.8101 -4.825,6.1485 -11.9497,9.2825 -21.0448,9.2825 -3.4077,0 -6.9151,-0.4323 -10.4407,-1.2863 -3.5224,-0.8532 -7.0368,-2.1082 -10.4763,-3.7408 l 0.2948,-0.6208 0.6874,0 0,12.3481 -0.6874,0 0.2314,-0.6471 z m 26.7493,-42.5176 c 5.9445,0 10.4903,-1.9602 13.9453,-5.998 3.4669,-4.0517 5.1731,-9.5257 5.1731,-16.6797 0,-7.0964 -1.7062,-12.5534 -5.1742,-16.6272 -3.4552,-4.0589 -8.0004,-6.0289 -13.9442,-6.0289 -5.9437,0 -10.485,1.9698 -13.9331,6.0284 -3.461,4.0738 -5.1639,9.5312 -5.1639,16.6277 0,7.1542 1.7029,12.6285 5.1628,16.6802 3.4479,4.0375 7.9898,5.9975 13.9342,5.9975 z m 0,1.3744 c -6.2284,0 -11.3245,-2.1991 -14.9798,-6.4796 -3.6433,-4.2663 -5.492,-10.2095 -5.492,-17.5725 0,-7.306 1.8487,-13.2303 5.4909,-17.5175 3.6551,-4.3023 8.7518,-6.513 14.9809,-6.513 6.229,0 11.3289,2.2104 14.9912,6.5125 3.6496,4.2872 5.502,10.2118 5.502,17.518 0,7.3632 -1.8525,13.3067 -5.5031,17.5731 -3.6625,4.2801 -8.7618,6.479 -14.9901,6.479 z m 98.4483,-44.1474 -34.2414,53.4943 -0.579,-0.3704 0,-0.6872 34.2414,0 0,0.6872 -0.6874,0 0,-53.4943 0.6874,0 0.579,0.3704 z m 0.1084,-0.3704 0,53.4943 0,0.6872 -0.6874,0 -34.2414,0 -1.256,0 0.677,-1.0576 34.2414,-53.4943 1.2664,-1.9784 0,2.3488 z m -4.2533,-12.4984 17.0562,0 0.6874,0 0,0.6872 0,65.3055 -0.6874,0 0,-0.6872 14.3066,0 0.6874,0 0,0.6872 0,11.2744 0,0.6872 -0.6874,0 -14.3066,0 0,-0.6872 0.6874,0 0,23.6225 0,0.6872 -0.6874,0 -13.4903,0 -0.6874,0 0,-0.6872 0,-23.6225 0.6874,0 0,0.6872 -45.2399,0 -0.6874,0 0,-0.6872 0,-13.0783 0,-0.2053 0.1127,-0.1717 41.6739,-63.5016 0.2036,-0.3102 0.3712,0 z m 0.5747,1.0641 -41.6739,63.5017 -0.5748,-0.377 0.6874,0 0,13.0783 -0.6874,0 0,-0.6872 45.2399,0 0.6874,0 0,0.6872 0,23.6225 -0.6874,0 0,-0.6872 13.4903,0 0,0.6872 -0.6874,0 0,-23.6225 0,-0.6872 0.6874,0 14.3066,0 0,0.6872 -0.6874,0 0,-11.2744 0.6874,0 0,0.6872 -14.3066,0 -0.6874,0 0,-0.6872 0,-65.3055 0.6874,0 0,0.6872 -17.0562,0 0,-0.6872 0.5747,0.3769 z m 53.7088,82.0872 14.1777,0 0.6874,0 0,0.6872 0,17.0511 0,0.6872 -0.6874,0 -14.1777,0 -0.6874,0 0,-0.6872 0,-17.0511 0,-0.6872 0.6874,0 z m 0.6874,0.6872 0,17.0511 -0.6874,0 0,-0.6872 14.1777,0 0,0.6872 -0.6874,0 0,-17.0511 0.6874,0 0,0.6872 -14.1777,0 0,-0.6872 0.6874,0 z m 72.3064,-73.5305 c -6.7693,0 -11.6905,3.2205 -15.1233,9.9232 -3.4677,6.771 -5.1981,16.9357 -5.1981,30.6646 0,13.6715 1.7304,23.8113 5.1983,30.5896 3.4328,6.7099 8.354,9.9337 15.1231,9.9337 6.8273,0 11.7766,-3.2246 15.2091,-9.9337 3.4678,-6.7783 5.1982,-16.9181 5.1982,-30.5896 0,-13.7289 -1.7304,-23.8936 -5.1981,-30.6646 -3.4324,-6.7019 -8.3817,-9.9232 -15.2092,-9.9232 z m 0,-1.3744 c 7.2356,0 12.8337,3.6436 16.4329,10.6713 3.5639,6.9587 5.3493,17.4459 5.3493,31.2909 0,13.7879 -1.7854,24.2498 -5.3491,31.2155 -3.5992,7.0349 -9.1973,10.6822 -16.4331,10.6822 -7.1795,0 -12.7484,-3.6482 -16.3471,-10.6822 -3.5637,-6.9657 -5.3491,-17.4276 -5.3491,-31.2155 0,-13.845 1.7853,-24.3322 5.3492,-31.2909 3.5988,-7.0269 9.1677,-10.6713 16.347,-10.6713 z m 0,-10.7375 c 11.4093,0 20.3007,4.6001 26.328,13.631 5.9988,8.9883 9.0089,22.0827 9.0089,39.0687 0,16.9431 -3.0102,30.0161 -9.0089,39.0042 -6.0273,9.031 -14.9187,13.631 -26.328,13.631 -11.3951,0 -20.2793,-4.6001 -26.3065,-13.631 -5.9988,-8.9881 -9.0089,-22.0611 -9.0089,-39.0042 0,-16.986 3.0101,-30.0804 9.0089,-39.0687 6.0272,-9.0308 14.9114,-13.631 26.3065,-13.631 z m 0,1.3744 c -11.0602,0 -19.3324,4.2833 -25.1629,13.0194 -5.859,8.7788 -8.7777,21.4758 -8.7777,38.3059 0,16.787 2.9187,29.4625 8.7777,38.2414 5.8305,8.7362 14.1027,13.0195 25.1629,13.0195 11.0746,0 19.3539,-4.2835 25.1844,-13.0195 5.859,-8.7789 8.7777,-21.4544 8.7777,-38.2414 0,-16.8301 -2.9188,-29.5271 -8.7777,-38.3059 -5.8305,-8.736 -14.1098,-13.0194 -25.1844,-13.0194 z" /></g></g><g
         transform="matrix(0,2.8293782,2.8285368,0,-7.5850097,-124.83849)"
         id="g636"><path
           inkscape:connector-curvature="0"
           id="path638"
           style="fill:none;stroke:#0000ff;stroke-width:0.2;stroke-linecap:butt;stroke-linejoin:miter;stroke-miterlimit:10;stroke-dasharray:none;stroke-opacity:1"
           d="m 148.5,128 0,17.72457" /><path
           inkscape:connector-curvature="0"
           id="path640"
           style="fill:none;stroke:#0000ff;stroke-width:0.2;stroke-linecap:butt;stroke-linejoin:miter;stroke-miterlimit:10;stroke-dasharray:none;stroke-opacity:1"
           d="m 242.5,131 0,14.72457" /><path
           inkscape:connector-curvature="0"
           id="path642"
           style="fill:none;stroke:#0000ff;stroke-width:0.2;stroke-linecap:butt;stroke-linejoin:miter;stroke-miterlimit:10;stroke-dasharray:none;stroke-opacity:1"
           d="m 148.5,144.72457 94,0" /></g><g
         transform="matrix(0,0.06174042,0.06174042,0,-8.3843317,-125.63781)"
         id="g644"><path
           inkscape:connector-curvature="0"
           id="path646"
           style="fill:#0000ff;fill-opacity:1;fill-rule:nonzero;stroke:none"
           d="m 11125.995,6643.2673 -137.481,-34.36 0,34.36 0,34.36 137.481,-34.36 z" /><path
           inkscape:connector-curvature="0"
           id="path648"
           style="fill:#0000ff;fill-opacity:1;fill-rule:nonzero;stroke:none"
           d="m 6818.2563,6643.2673 137.481,34.36 0,-34.36 0,-34.36 -137.481,34.36 z" /></g><g
         transform="matrix(0,0.06174042,0.06174042,0,-8.3843317,-125.63781)"
         id="g652"><path
           inkscape:connector-curvature="0"
           id="path654"
           style="fill:#0000ff;fill-opacity:1;fill-rule:nonzero;stroke:none"
           d="m 8833.2338,6549.5558 0,-12.3482 c 3.4084,1.6178 6.8561,2.8491 10.3433,3.6937 3.4871,0.8447 6.9134,1.2671 10.2788,1.2671 8.9506,0 15.7853,-3.0065 20.504,-9.0196 4.7188,-6.013 7.4147,-15.1542 8.0878,-27.4235 -2.5921,3.8511 -5.8823,6.8075 -9.8707,8.8691 -3.9884,2.0616 -8.3957,3.0924 -13.2218,3.0924 -10.0247,0 -17.9585,-3.0315 -23.8014,-9.0946 -5.843,-6.0632 -8.7644,-14.3561 -8.7644,-24.8789 0,-10.2793 3.0432,-18.5293 9.1296,-24.7499 6.0864,-6.2206 14.1849,-9.3309 24.2954,-9.3309 11.6,0 20.4539,4.4417 26.5618,13.3252 6.1079,8.8836 9.1618,21.7793 9.1618,38.6873 0,15.7913 -3.7485,28.3971 -11.2455,37.8175 -7.497,9.4204 -17.5754,14.1306 -30.2351,14.1306 -3.4084,0 -6.8561,-0.3365 -10.3433,-1.0094 -3.4871,-0.6728 -7.1139,-1.6822 -10.8803,-3.0279 z m 26.9806,-42.4776 c 6.0864,0 10.909,-2.0795 14.4678,-6.2385 3.5587,-4.159 5.3381,-9.8678 5.3381,-17.1264 0,-7.2012 -1.7794,-12.8921 -5.3381,-17.0726 -3.5588,-4.1805 -8.3814,-6.2707 -14.4678,-6.2707 -6.0864,0 -10.9054,2.0902 -14.4569,6.2707 -3.5516,4.1805 -5.3274,9.8714 -5.3274,17.0726 0,7.2586 1.7758,12.9674 5.3274,17.1264 3.5515,4.159 8.3705,6.2385 14.4569,6.2385 z m 97.8693,-43.8305 -34.2413,53.4942 34.2413,0 0,-53.4942 z m -3.5659,-11.8113 17.0563,0 0,65.3055 14.3066,0 0,11.2744 -14.3066,0 0,23.6225 -13.4904,0 0,-23.6225 -45.2398,0 0,-13.0783 41.6739,-63.5016 z m 54.2835,83.1513 14.1778,0 0,17.0511 -14.1778,0 0,-17.0511 z m 72.9939,-74.2177 c -6.9743,0 -12.2194,3.4324 -15.7352,10.2973 -3.5158,6.8648 -5.2737,17.1907 -5.2737,30.9777 0,13.7297 1.7579,24.0305 5.2737,30.9025 3.5158,6.872 8.7609,10.3081 15.7352,10.3081 7.0315,0 12.3052,-3.4361 15.821,-10.3081 3.5158,-6.872 5.2737,-17.1728 5.2737,-30.9025 0,-13.787 -1.7579,-24.1129 -5.2737,-30.9777 -3.5158,-6.8649 -8.7895,-10.2973 -15.821,-10.2973 z m 0,-10.7375 c 11.2419,0 19.8273,4.4417 25.7562,13.3252 5.9288,8.8836 8.8933,21.7793 8.8933,38.6873 0,16.865 -2.9645,29.7393 -8.8933,38.6228 -5.9289,8.8835 -14.5143,13.3253 -25.7562,13.3253 -11.2277,0 -19.8059,-4.4418 -25.7348,-13.3253 -5.9288,-8.8835 -8.8933,-21.7578 -8.8933,-38.6228 0,-16.908 2.9645,-29.8037 8.8933,-38.6873 5.9289,-8.8835 14.5071,-13.3252 25.7348,-13.3252 z" /><g
           id="g656"><path
             inkscape:connector-curvature="0"
             id="path658"
             style="fill:#0000ff;fill-opacity:1;fill-rule:nonzero;stroke:none"
             d="m 8832.5464,6549.5558 0,-12.3482 0,-1.087 0.9822,0.4662 c 3.3773,1.603 6.7584,2.8105 10.2104,3.6467 3.4486,0.8353 6.7937,1.2477 10.1169,1.2477 8.8061,0 15.3508,-2.879 19.9632,-8.7565 4.6375,-5.9095 7.2735,-14.8476 7.9422,-27.0371 l 0.6864,0.038 0.5703,0.3836 c -2.6396,3.9218 -6.0587,6.9939 -10.1253,9.096 -4.0643,2.1008 -8.632,3.1691 -13.5375,3.1691 -10.1516,0 -18.3471,-3.1315 -24.2965,-9.3051 -5.9466,-6.1707 -8.9567,-14.7153 -8.9567,-25.3556 0,-10.402 3.1364,-18.9049 9.3256,-25.2304 6.1912,-6.3278 14.5488,-9.5376 24.7868,-9.5376 11.7628,0 20.9203,4.594 27.1283,13.6232 6.1807,8.9894 9.2827,22.0883 9.2827,39.0765 0,15.8913 -3.815,28.7207 -11.395,38.2453 -7.5975,9.5467 -17.9605,14.39 -30.773,14.39 -3.4418,0 -6.9549,-0.3428 -10.4735,-1.0218 -3.5145,-0.6782 -7.1918,-1.7016 -10.9815,-3.0556 l -0.456,-0.163 0,-0.4841 z m 0.9187,-0.6472 c 3.7432,1.3375 7.3195,2.3328 10.7793,3.0004 3.4556,0.6668 6.8381,0.9969 10.213,0.9969 12.507,0 22.3007,-4.5772 29.6972,-13.8712 7.414,-9.3161 11.096,-21.6984 11.096,-37.3897 0,-16.8278 -3.0058,-29.5204 -9.0409,-38.298 -6.0077,-8.7378 -14.5581,-13.0273 -25.9953,-13.0273 -9.983,0 -17.8225,3.0108 -23.804,9.1242 -5.9837,6.1156 -8.9336,14.1128 -8.9336,24.2694 0,10.4053 2.8328,18.4466 8.572,24.4021 5.7366,5.9527 13.4086,8.8842 23.3064,8.8842 4.7468,0 8.9936,-0.9932 12.9061,-3.0156 3.9101,-2.0212 7.0715,-4.8618 9.6161,-8.6424 l 1.3934,-2.0702 -0.1367,2.4915 c -0.6775,12.3493 -3.4333,21.6935 -8.2333,27.8101 -4.8251,6.1485 -11.9497,9.2826 -21.0449,9.2826 -3.4076,0 -6.9151,-0.4324 -10.4407,-1.2864 -3.5224,-0.8532 -7.0367,-2.1082 -10.4762,-3.7408 l 0.2948,-0.6208 0.6874,0 0,12.3482 -0.6874,0 0.2313,-0.6472 z m 26.7493,-42.5176 c 5.9445,0 10.4903,-1.9602 13.9454,-5.998 3.4669,-4.0517 5.1731,-9.5257 5.1731,-16.6797 0,-7.0963 -1.7063,-12.5534 -5.1742,-16.6272 -3.4553,-4.0589 -8.0005,-6.0289 -13.9443,-6.0289 -5.9437,0 -10.485,1.9698 -13.933,6.0284 -3.461,4.0738 -5.1639,9.5312 -5.1639,16.6277 0,7.1542 1.7028,12.6285 5.1628,16.6802 3.4478,4.0375 7.9898,5.9975 13.9341,5.9975 z m 0,1.3744 c -6.2284,0 -11.3244,-2.1991 -14.9797,-6.4795 -3.6433,-4.2664 -5.492,-10.2096 -5.492,-17.5726 0,-7.3059 1.8486,-13.2303 5.4908,-17.5174 3.6552,-4.3024 8.7518,-6.5131 14.9809,-6.5131 6.229,0 11.329,2.2105 14.9913,6.5125 3.6495,4.2872 5.502,10.2119 5.502,17.518 0,7.3632 -1.8526,13.3067 -5.5032,17.5731 -3.6624,4.2801 -8.7617,6.479 -14.9901,6.479 z m 98.4483,-44.1473 -34.2413,53.4942 -0.579,-0.3704 0,-0.6872 34.2413,0 0,0.6872 -0.6874,0 0,-53.4942 0.6874,0 0.579,0.3704 z m 0.1084,-0.3704 0,53.4942 0,0.6872 -0.6874,0 -34.2413,0 -1.256,0 0.677,-1.0576 34.2413,-53.4942 1.2664,-1.9785 0,2.3489 z m -4.2533,-12.4985 17.0563,0 0.6874,0 0,0.6872 0,65.3055 -0.6874,0 0,-0.6872 14.3066,0 0.6874,0 0,0.6872 0,11.2744 0,0.6872 -0.6874,0 -14.3066,0 0,-0.6872 0.6874,0 0,23.6225 0,0.6872 -0.6874,0 -13.4904,0 -0.6874,0 0,-0.6872 0,-23.6225 0.6874,0 0,0.6872 -45.2398,0 -0.6874,0 0,-0.6872 0,-13.0783 0,-0.2053 0.1126,-0.1716 41.674,-63.5017 0.2036,-0.3102 0.3711,0 z m 0.5748,1.0642 -41.674,63.5016 -0.5747,-0.377 0.6874,0 0,13.0783 -0.6874,0 0,-0.6872 45.2398,0 0.6874,0 0,0.6872 0,23.6225 -0.6874,0 0,-0.6872 13.4904,0 0,0.6872 -0.6875,0 0,-23.6225 0,-0.6872 0.6875,0 14.3066,0 0,0.6872 -0.6874,0 0,-11.2744 0.6874,0 0,0.6872 -14.3066,0 -0.6875,0 0,-0.6872 0,-65.3055 0.6875,0 0,0.6872 -17.0563,0 0,-0.6872 0.5748,0.377 z m 53.7087,82.0871 14.1778,0 0.6874,0 0,0.6872 0,17.0511 0,0.6872 -0.6874,0 -14.1778,0 -0.6874,0 0,-0.6872 0,-17.0511 0,-0.6872 0.6874,0 z m 0.6874,0.6872 0,17.0511 -0.6874,0 0,-0.6872 14.1778,0 0,0.6872 -0.6874,0 0,-17.0511 0.6874,0 0,0.6872 -14.1778,0 0,-0.6872 0.6874,0 z m 72.3065,-73.5305 c -6.7694,0 -11.6905,3.2205 -15.1233,9.9233 -3.4677,6.7709 -5.1982,16.9356 -5.1982,30.6645 0,13.6715 1.7305,23.8113 5.1983,30.5896 3.4329,6.7099 8.354,9.9338 15.1232,9.9338 6.8273,0 11.7766,-3.2247 15.209,-9.9338 3.4679,-6.7783 5.1983,-16.9181 5.1983,-30.5896 0,-13.7289 -1.7305,-23.8936 -5.1982,-30.6645 -3.4323,-6.702 -8.3816,-9.9233 -15.2091,-9.9233 z m 0,-1.3744 c 7.2356,0 12.8337,3.6436 16.4329,10.6713 3.5639,6.9587 5.3492,17.4459 5.3492,31.2909 0,13.7879 -1.7854,24.2498 -5.3491,31.2155 -3.5991,7.0349 -9.1972,10.6823 -16.433,10.6823 -7.1795,0 -12.7485,-3.6482 -16.3472,-10.6823 -3.5637,-6.9657 -5.3491,-17.4276 -5.3491,-31.2155 0,-13.845 1.7854,-24.3322 5.3493,-31.2909 3.5987,-7.0269 9.1677,-10.6713 16.347,-10.6713 z m 0,-10.7375 c 11.4092,0 20.3007,4.6001 26.328,13.631 5.9988,8.9883 9.0089,22.0827 9.0089,39.0687 0,16.9431 -3.0102,30.0161 -9.0089,39.0042 -6.0273,9.031 -14.9188,13.6311 -26.328,13.6311 -11.3951,0 -20.2794,-4.6002 -26.3066,-13.6311 -5.9987,-8.9881 -9.0089,-22.0611 -9.0089,-39.0042 0,-16.986 3.0101,-30.0804 9.0089,-39.0687 6.0272,-9.0308 14.9115,-13.631 26.3066,-13.631 z m 0,1.3744 c -11.0602,0 -19.3324,4.2833 -25.163,13.0194 -5.8589,8.7788 -8.7777,21.4758 -8.7777,38.3059 0,16.787 2.9187,29.4626 8.7777,38.2414 5.8306,8.7362 14.1028,13.0195 25.163,13.0195 11.0746,0 19.3539,-4.2834 25.1844,-13.0195 5.859,-8.7788 8.7777,-21.4544 8.7777,-38.2414 0,-16.8301 -2.9188,-29.5271 -8.7777,-38.3059 -5.8305,-8.736 -14.1098,-13.0194 -25.1844,-13.0194 z" /></g></g></g><text
       xml:space="preserve"
       style="font-style:normal;font-variant:normal;font-weight:600;font-stretch:normal;font-size:10px;line-height:125%;font-family:Titillium;-inkscape-font-specification:'Titillium, Semi-Bold';text-align:start;letter-spacing:0px;word-spacing:0px;writing-mode:lr-tb;text-anchor:start;fill:#000000;fill-opacity:1;stroke:none;stroke-width:1px;stroke-linecap:butt;stroke-linejoin:miter;stroke-opacity:1"
       x="213.75517"
       y="-479.96091"
       id="text5770"
       sodipodi:linespacing="125%"
       transform="scale(1,-1)"><tspan
         sodipodi:role="line"
         id="tspan5955"
         x="213.75517"
         y="-479.96091">EXTRUDER 1</tspan></text>
<text
       xml:space="preserve"
       style="font-style:normal;font-variant:normal;font-weight:600;font-stretch:normal;font-size:10px;line-height:125%;font-family:Titillium;-inkscape-font-specification:'Titillium, Semi-Bold';text-align:start;letter-spacing:0px;word-spacing:0px;writing-mode:lr-tb;text-anchor:start;fill:#000000;fill-opacity:1;stroke:none;stroke-width:1px;stroke-linecap:butt;stroke-linejoin:miter;stroke-opacity:1"
       x="213.75517"
       y="-70.537292"
       id="text5882"
       sodipodi:linespacing="125%"
       transform="scale(1,-1)"><tspan
         sodipodi:role="line"
         id="tspan5967"
         x="213.75517"
         y="-70.537292">RIGHT Z-AXIS MOTOR</tspan></text>
<text
       xml:space="preserve"
       style="font-style:normal;font-variant:normal;font-weight:600;font-stretch:normal;font-size:10px;line-height:125%;font-family:Titillium;-inkscape-font-specification:'Titillium, Semi-Bold';text-align:start;letter-spacing:0px;word-spacing:0px;writing-mode:lr-tb;text-anchor:start;fill:#000000;fill-opacity:1;stroke:none;stroke-width:1px;stroke-linecap:butt;stroke-linejoin:miter;stroke-opacity:1"
       x="214.50517"
       y="-104.55305"
       id="text5882-8"
       sodipodi:linespacing="125%"
       transform="scale(1,-1)"><tspan
         sodipodi:role="line"
         id="tspan5965"
         x="214.50517"
         y="-104.55305">Y-AXIS MOTOR</tspan></text>
<text
       xml:space="preserve"
       style="font-style:normal;font-variant:normal;font-weight:600;font-stretch:normal;font-size:10px;line-height:125%;font-family:Titillium;-inkscape-font-specification:'Titillium, Semi-Bold';text-align:start;letter-spacing:0px;word-spacing:0px;writing-mode:lr-tb;text-anchor:start;fill:#000000;fill-opacity:1;stroke:none;stroke-width:1px;stroke-linecap:butt;stroke-linejoin:miter;stroke-opacity:1"
       x="213.75517"
       y="-138.56879"
       id="text5882-5"
       sodipodi:linespacing="125%"
       transform="scale(1,-1)"><tspan
         sodipodi:role="line"
         id="tspan5963"
         x="213.75517"
         y="-138.56879">LEFT Z-AXIS MOTOR</tspan></text>
<text
       xml:space="preserve"
       style="font-style:normal;font-variant:normal;font-weight:600;font-stretch:normal;font-size:10px;line-height:125%;font-family:Titillium;-inkscape-font-specification:'Titillium, Semi-Bold';text-align:start;letter-spacing:0px;word-spacing:0px;writing-mode:lr-tb;text-anchor:start;fill:#000000;fill-opacity:1;stroke:none;stroke-width:1px;stroke-linecap:butt;stroke-linejoin:miter;stroke-opacity:1"
       x="213.75517"
       y="-212.21381"
       id="text5882-6"
       sodipodi:linespacing="125%"
       transform="scale(1,-1)"><tspan
         sodipodi:role="line"
         id="tspan5961"
         x="213.75517"
         y="-212.21381">HEAT BED SIGNAL</tspan></text>
<text
       xml:space="preserve"
       style="font-style:normal;font-variant:normal;font-weight:600;font-stretch:normal;font-size:10px;line-height:125%;font-family:Titillium;-inkscape-font-specification:'Titillium, Semi-Bold';text-align:start;letter-spacing:0px;word-spacing:0px;writing-mode:lr-tb;text-anchor:start;fill:#000000;fill-opacity:1;stroke:none;stroke-width:1px;stroke-linecap:butt;stroke-linejoin:miter;stroke-opacity:1"
       x="213.75517"
       y="-267.87253"
       id="text5882-3"
       sodipodi:linespacing="125%"
       transform="scale(1,-1)"><tspan
         sodipodi:role="line"
         id="tspan5959"
         x="213.75517"
         y="-267.87253">HEAT BED POWER</tspan></text>
<text
       xml:space="preserve"
       style="font-style:normal;font-variant:normal;font-weight:600;font-stretch:normal;font-size:10px;line-height:125%;font-family:Titillium;-inkscape-font-specification:'Titillium, Semi-Bold';text-align:start;letter-spacing:0px;word-spacing:0px;writing-mode:lr-tb;text-anchor:start;fill:#000000;fill-opacity:1;stroke:none;stroke-width:1px;stroke-linecap:butt;stroke-linejoin:miter;stroke-opacity:1"
       x="214.41516"
       y="-350.31418"
       id="text5882-1"
       sodipodi:linespacing="125%"
       transform="scale(1,-1)"><tspan
         sodipodi:role="line"
         id="tspan5957"
         x="214.41516"
         y="-350.31418">X-AXIS MOTOR</tspan></text>
<path
       style="fill:none;fill-rule:evenodd;stroke:#0000ff;stroke-width:0.80000001px;stroke-linecap:butt;stroke-linejoin:miter;stroke-opacity:1"
       d="m 200.70925,33.576904 -82.34335,0"
       id="path5969"
       inkscape:connector-curvature="0"
       sodipodi:nodetypes="cc" /><path
       style="fill:none;fill-rule:evenodd;stroke:#0000ff;stroke-width:0.80000001px;stroke-linecap:butt;stroke-linejoin:miter;stroke-opacity:1"
       d="m 161.23641,33.876696 0,528.936114"
       id="path5971"
       inkscape:connector-curvature="0" /><path
       style="fill:none;fill-rule:evenodd;stroke:#0000ff;stroke-width:0.80000001px;stroke-linecap:butt;stroke-linejoin:miter;stroke-opacity:1"
       d="m 274.00264,70.379416 c -2.54383,0.282648 -117.29903,0 -117.29903,0"
       id="path5973"
       inkscape:connector-curvature="0" /><path
       style="fill:none;fill-rule:evenodd;stroke:#0000ff;stroke-width:0.80000001px;stroke-linecap:butt;stroke-linejoin:miter;stroke-opacity:1"
       d="m 166.87894,104.57986 -10.74063,0"
       id="path5975"
       inkscape:connector-curvature="0" /><path
       style="fill:none;fill-rule:evenodd;stroke:#0000ff;stroke-width:0.80000001px;stroke-linecap:butt;stroke-linejoin:miter;stroke-opacity:1"
       d="m 166.83143,137.61958 -10.74063,0"
       id="path5975-4"
       inkscape:connector-curvature="0" /><path
       style="fill:none;fill-rule:evenodd;stroke:#0000ff;stroke-width:0.80000001px;stroke-linecap:butt;stroke-linejoin:miter;stroke-opacity:1"
       d="m 167.29815,211.35513 -10.74063,0"
       id="path5975-0"
       inkscape:connector-curvature="0" /><path
       style="fill:none;fill-rule:evenodd;stroke:#0000ff;stroke-width:0.80000001px;stroke-linecap:butt;stroke-linejoin:miter;stroke-opacity:1"
       d="m 167.37848,266.89358 -10.74064,0"
       id="path5975-5"
       inkscape:connector-curvature="0" /><path
       style="fill:none;fill-rule:evenodd;stroke:#0000ff;stroke-width:0.80000001px;stroke-linecap:butt;stroke-linejoin:miter;stroke-opacity:1"
       d="m 167.26752,351.14001 -10.74063,0"
       id="path5975-02"
       inkscape:connector-curvature="0" /><path
       style="fill:none;fill-rule:evenodd;stroke:#0000ff;stroke-width:0.80000001px;stroke-linecap:butt;stroke-linejoin:miter;stroke-opacity:1"
       d="m 166.83828,480.86552 -10.74063,0"
       id="path5975-8"
       inkscape:connector-curvature="0" /><text
       xml:space="preserve"
       style="font-style:normal;font-weight:normal;font-size:8px;line-height:125%;font-family:Sans;letter-spacing:0px;word-spacing:0px;fill:#000000;fill-opacity:1;stroke:none;stroke-width:1px;stroke-linecap:butt;stroke-linejoin:miter;stroke-opacity:1"
       x="89.422798"
       y="-61.607265"
       id="text6016"
       sodipodi:linespacing="125%"
       transform="scale(1,-1)"><tspan
         sodipodi:role="line"
         id="tspan6018"
         x="89.422798"
         y="-61.607265"
         style="fill:#0000ff">13mm to bottom</tspan></text>
<text
       xml:space="preserve"
       style="font-style:normal;font-weight:normal;font-size:8px;line-height:125%;font-family:Sans;letter-spacing:0px;word-spacing:0px;fill:#000000;fill-opacity:1;stroke:none;stroke-width:1px;stroke-linecap:butt;stroke-linejoin:miter;stroke-opacity:1"
       x="89.003227"
       y="-96.030312"
       id="text6016-1"
       sodipodi:linespacing="125%"
       transform="scale(1,-1)"><tspan
         sodipodi:role="line"
         id="tspan6018-2"
         x="89.003227"
         y="-96.030312"
         style="fill:#0000ff">25mm to bottom</tspan></text>
<text
       xml:space="preserve"
       style="font-style:normal;font-weight:normal;font-size:8px;line-height:125%;font-family:Sans;letter-spacing:0px;word-spacing:0px;fill:#000000;fill-opacity:1;stroke:none;stroke-width:1px;stroke-linecap:butt;stroke-linejoin:miter;stroke-opacity:1"
       x="90.073105"
       y="-129.28693"
       id="text6016-6"
       sodipodi:linespacing="125%"
       transform="scale(1,-1)"><tspan
         sodipodi:role="line"
         id="tspan6018-25"
         x="90.073105"
         y="-129.28693"
         style="fill:#0000ff">37mm to bottom</tspan></text>
<text
       xml:space="preserve"
       style="font-style:normal;font-weight:normal;font-size:8px;line-height:125%;font-family:Sans;letter-spacing:0px;word-spacing:0px;fill:#000000;fill-opacity:1;stroke:none;stroke-width:1px;stroke-linecap:butt;stroke-linejoin:miter;stroke-opacity:1"
       x="89.896828"
       y="-204.10287"
       id="text6016-2"
       sodipodi:linespacing="125%"
       transform="scale(1,-1)"><tspan
         sodipodi:role="line"
         id="tspan6018-7"
         x="89.896828"
         y="-204.10287"
         style="fill:#0000ff">63mm to bottom</tspan></text>
<text
       xml:space="preserve"
       style="font-style:normal;font-weight:normal;font-size:8px;line-height:125%;font-family:Sans;letter-spacing:0px;word-spacing:0px;fill:#000000;fill-opacity:1;stroke:none;stroke-width:1px;stroke-linecap:butt;stroke-linejoin:miter;stroke-opacity:1"
       x="91.470222"
       y="-260.51431"
       id="text6016-2-2"
       sodipodi:linespacing="125%"
       transform="scale(1,-1)"><tspan
         sodipodi:role="line"
         id="tspan6018-7-0"
         x="91.470222"
         y="-260.51431"
         style="fill:#0000ff">82.5mm to bottom</tspan></text>
<text
       xml:space="preserve"
       style="font-style:normal;font-weight:normal;font-size:8px;line-height:125%;font-family:Sans;letter-spacing:0px;word-spacing:0px;fill:#000000;fill-opacity:1;stroke:none;stroke-width:1px;stroke-linecap:butt;stroke-linejoin:miter;stroke-opacity:1"
       x="79.599014"
       y="-344.30142"
       id="text6016-2-0"
       sodipodi:linespacing="125%"
       transform="scale(1,-1)"><tspan
         sodipodi:role="line"
         id="tspan6018-7-4"
         x="79.599014"
         y="-344.30142"
         style="fill:#0000ff">111.5mm to bottom</tspan></text>
<text
       xml:space="preserve"
       style="font-style:normal;font-weight:normal;font-size:8px;line-height:125%;font-family:Sans;letter-spacing:0px;word-spacing:0px;fill:#000000;fill-opacity:1;stroke:none;stroke-width:1px;stroke-linecap:butt;stroke-linejoin:miter;stroke-opacity:1"
       x="86.356133"
       y="-473.27988"
       id="text6016-2-0-9"
       sodipodi:linespacing="125%"
       transform="scale(1,-1)"><tspan
         sodipodi:role="line"
         id="tspan6018-7-4-3"
         x="86.356133"
         y="-473.27988"
         style="fill:#0000ff">157mm to bottom</tspan></text>
</g></svg>