<?xml version="1.0" encoding="UTF-8" standalone="no"?>
<!-- Created with Inkscape (http://www.inkscape.org/) -->

<svg
   xmlns:dc="http://purl.org/dc/elements/1.1/"
   xmlns:cc="http://creativecommons.org/ns#"
   xmlns:rdf="http://www.w3.org/1999/02/22-rdf-syntax-ns#"
   xmlns:svg="http://www.w3.org/2000/svg"
   xmlns="http://www.w3.org/2000/svg"
   xmlns:sodipodi="http://sodipodi.sourceforge.net/DTD/sodipodi-0.dtd"
   xmlns:inkscape="http://www.inkscape.org/namespaces/inkscape"
   id="svg2"
   version="1.1"
   inkscape:version="0.92.1 r15371"
   xml:space="preserve"
   width="78.181mm"
   height="188mm"
   viewBox="0 0 277.0193 666.14175"
   sodipodi:docname="interconnect_cover_rev2_clean.svg"><metadata
     id="metadata8"><rdf:RDF><cc:Work
         rdf:about=""><dc:format>image/svg+xml</dc:format><dc:type
           rdf:resource="http://purl.org/dc/dcmitype/StillImage" /><dc:title></dc:title></cc:Work></rdf:RDF></metadata><defs
     id="defs6"><clipPath
       clipPathUnits="userSpaceOnUse"
       id="clipPath26"><path
         d="M 0,0 H 14033 V 9917 H 0 Z"
         id="path28"
         inkscape:connector-curvature="0"
         style="clip-rule:evenodd" /></clipPath><clipPath
       clipPathUnits="userSpaceOnUse"
       id="clipPath46"><path
         d="M 0,0 H 14033 V 9917 H 0 Z"
         id="path48"
         inkscape:connector-curvature="0"
         style="clip-rule:evenodd" /></clipPath><clipPath
       clipPathUnits="userSpaceOnUse"
       id="clipPath52"><path
         d="M 12.946475,12.946475 H 12817.01 V 9904.0535 H 12.946475 Z"
         id="path54"
         inkscape:connector-curvature="0"
         style="clip-rule:evenodd" /></clipPath><clipPath
       clipPathUnits="userSpaceOnUse"
       id="clipPath2156"><path
         d="M 0,0 H 14033 V 9917 H 0 Z"
         id="path2158"
         inkscape:connector-curvature="0"
         style="clip-rule:evenodd" /></clipPath></defs><sodipodi:namedview
     pagecolor="#ffffff"
     bordercolor="#666666"
     borderopacity="1"
     objecttolerance="10"
     gridtolerance="10"
     guidetolerance="10"
     inkscape:pageopacity="0"
     inkscape:pageshadow="2"
     inkscape:window-width="1920"
     inkscape:window-height="1025"
     id="namedview4"
     showgrid="false"
     inkscape:zoom="0.725"
     inkscape:cx="327.47148"
     inkscape:cy="267.78795"
     inkscape:window-x="0"
     inkscape:window-y="31"
     inkscape:window-maximized="1"
     inkscape:current-layer="g10"
     units="mm" /><g
     id="g10"
     inkscape:groupmode="layer"
     inkscape:label="interconnect_cover_v0.5_PP-MP0107"
     transform="matrix(1.25,0,0,-1.25,0,666.14175)"><g
       aria-label="EXTRUDER 1"
       transform="scale(1,-1)"
       style="font-style:normal;font-variant:normal;font-weight:600;font-stretch:normal;line-height:0%;font-family:Titillium;-inkscape-font-specification:'Titillium, Semi-Bold';text-align:start;letter-spacing:0px;word-spacing:0px;writing-mode:lr-tb;text-anchor:start;fill:#000000;fill-opacity:1;stroke:none;stroke-width:1px;stroke-linecap:butt;stroke-linejoin:miter;stroke-opacity:1"
       id="text5770"><path
         d="m 24.200343,-445.82297 h 4.32 v -0.98 h -3.21 v -2 h 2.61 v -0.96 h -2.61 v -1.94 h 3.21 v -0.97 h -4.32 z"
         style="font-size:10px;line-height:1.25"
         id="path8828" /><path
         d="m 30.317687,-452.67297 h -1.25 l 2.04,3.54 -2.04,3.31 h 1.17 l 1.5,-2.58 1.47,2.58 h 1.24 l -2.03,-3.37 2.03,-3.48 h -1.17 l -1.49,2.7 z"
         style="font-size:10px;line-height:1.25"
         id="path8830" /><path
         d="m 34.712218,-451.68297 h 1.95 v 5.86 h 1.12 v -5.86 h 1.93 v -0.99 h -5 z"
         style="font-size:10px;line-height:1.25"
         id="path8832" /><path
         d="m 43.346124,-448.26297 0.99,2.44 h 1.22 l -1.13,-2.69 c 0.73,-0.34 1.12,-1.01 1.12,-1.98 0,-1.52 -0.81,-2.18 -2.32,-2.18 h -2.6 v 6.85 h 1.11 v -2.44 z m 1.06,-2.22 c 0,0.71 -0.32,1.26 -1.16,1.26 h -1.51 v -2.49 h 1.49 c 0.8,0 1.18,0.45 1.18,1.23 z"
         style="font-size:10px;line-height:1.25"
         id="path8834" /><path
         d="m 47.857999,-448.01297 v -4.66 h -1.12 v 4.64 c 0,1.65 0.88,2.32 2.51,2.32 1.64,0 2.53,-0.67 2.53,-2.32 v -4.64 h -1.12 v 4.66 c 0,0.92 -0.49,1.33 -1.41,1.33 -0.91,0 -1.39,-0.4 -1.39,-1.33 z"
         style="font-size:10px;line-height:1.25"
         id="path8836" /><path
         d="m 55.671906,-445.82297 c 2.26,0 2.74,-1.37 2.74,-3.54 0,-2.13 -0.53,-3.31 -2.74,-3.31 h -2.37 v 6.85 z m 1.59,-3.54 c 0,1.5 -0.21,2.56 -1.59,2.56 h -1.26 v -4.9 h 1.26 c 1.38,0 1.59,0.84 1.59,2.34 z"
         style="font-size:10px;line-height:1.25"
         id="path8838" /><path
         d="m 59.708156,-445.82297 h 4.32 v -0.98 h -3.21 v -2 h 2.61 v -0.96 h -2.61 v -1.94 h 3.21 v -0.97 h -4.32 z"
         style="font-size:10px;line-height:1.25"
         id="path8840" /><path
         d="m 67.955499,-448.26297 0.99,2.44 h 1.22 l -1.13,-2.69 c 0.73,-0.34 1.12,-1.01 1.12,-1.98 0,-1.52 -0.81,-2.18 -2.32,-2.18 h -2.6 v 6.85 h 1.11 v -2.44 z m 1.06,-2.22 c 0,0.71 -0.32,1.26 -1.16,1.26 h -1.51 v -2.49 h 1.49 c 0.8,0 1.18,0.45 1.18,1.23 z"
         style="font-size:10px;line-height:1.25"
         id="path8842" /><path
         d="m 73.704406,-450.99297 0.51,0.83 1.55,-1 v 5.34 h 1.11 v -6.6 h -1.02 z"
         style="font-size:10px;line-height:1.25"
         id="path8844" /></g><g
       aria-label="RIGHT Z-AXIS MOTOR"
       transform="scale(1,-1)"
       style="font-style:normal;font-variant:normal;font-weight:600;font-stretch:normal;line-height:0%;font-family:Titillium;-inkscape-font-specification:'Titillium, Semi-Bold';text-align:start;letter-spacing:0px;word-spacing:0px;writing-mode:lr-tb;text-anchor:start;fill:#000000;fill-opacity:1;stroke:none;stroke-width:1px;stroke-linecap:butt;stroke-linejoin:miter;stroke-opacity:1"
       id="text5882"><path
         d="m 26.920343,-38.839361 0.99,2.44 h 1.22 l -1.13,-2.69 c 0.73,-0.34 1.12,-1.01 1.12,-1.98 0,-1.52 -0.81,-2.18 -2.32,-2.18 h -2.6 v 6.85 h 1.11 v -2.44 z m 1.06,-2.22 c 0,0.71 -0.32,1.26 -1.16,1.26 h -1.51 v -2.49 h 1.49 c 0.8,0 1.18,0.45 1.18,1.23 z"
         style="font-size:10px;line-height:1.25"
         id="path8976" /><path
         d="m 30.372218,-36.399361 h 1.11 v -6.85 h -1.11 z"
         style="font-size:10px;line-height:1.25"
         id="path8978" /><path
         d="m 35.857531,-39.019361 h 0.85 v 1.67 c -0.12,0.03 -0.64,0.09 -1.09,0.09 -1.4,0 -1.69,-0.7 -1.69,-2.56 0,-1.93 0.35,-2.55 1.72,-2.55 0.91,0 2.12,0.16 2.12,0.16 l 0.04,-0.88 c 0,0 -1.28,-0.27 -2.33,-0.27 -2.04,0 -2.7,1.14 -2.7,3.54 0,2.27 0.56,3.53 2.74,3.53 0.83,0 2.2,-0.21 2.29,-0.23 v -3.48 h -1.95 z"
         style="font-size:10px;line-height:1.25"
         id="path8980" /><path
         d="m 43.270343,-36.399361 h 1.12 v -6.85 h -1.12 v 2.92 h -2.96 v -2.92 h -1.11 v 6.85 h 1.11 v -2.96 h 2.96 z"
         style="font-size:10px;line-height:1.25"
         id="path8982" /><path
         d="m 45.298156,-42.259361 h 1.95 v 5.86 h 1.12 v -5.86 h 1.93 v -0.99 h -5 z"
         style="font-size:10px;line-height:1.25"
         id="path8984" /><path
         d="m 53.049093,-42.279361 h 3.17 v 0.2 l -3.17,4.62 v 1.06 h 4.5 v -0.97 h -3.18 v -0.19 l 3.18,-4.62 v -1.07 h -4.5 z"
         style="font-size:10px;line-height:1.25"
         id="path8986" /><path
         d="m 58.336749,-38.599361 h 2.99 v -0.99 h -2.99 z"
         style="font-size:10px;line-height:1.25"
         id="path8988" /><path
         d="m 62.106437,-36.399361 h 1.11 l 0.37,-1.47 h 2.63 l 0.37,1.47 h 1.12 l -1.7,-6.85 h -2.21 z m 2.55,-5.92 h 0.5 l 0.84,3.47 h -2.19 z"
         style="font-size:10px;line-height:1.25"
         id="path8990" /><path
         d="m 69.282531,-43.249361 h -1.25 l 2.04,3.54 -2.04,3.31 h 1.17 l 1.5,-2.58 1.47,2.58 h 1.24 l -2.03,-3.37 2.03,-3.48 h -1.17 l -1.49,2.7 z"
         style="font-size:10px;line-height:1.25"
         id="path8992" /><path
         d="m 74.337062,-36.399361 h 1.11 v -6.85 h -1.11 z"
         style="font-size:10px;line-height:1.25"
         id="path8994" /><path
         d="m 81.112374,-43.129361 c 0,0 -1.3,-0.24 -2.17,-0.24 -1.37,0 -2.28,0.57 -2.28,1.95 0,1.19 0.64,1.64 2.12,2.02 1.05,0.25 1.36,0.45 1.36,1.03 0,0.72 -0.39,1.1 -1.24,1.1 -0.71,0 -2.06,-0.18 -2.06,-0.18 l -0.11,0.89 c 0,0 1.35,0.27 2.24,0.27 1.35,0 2.29,-0.65 2.29,-2.15 0,-1.17 -0.52,-1.55 -1.96,-1.95 -1.17,-0.32 -1.53,-0.47 -1.53,-1.11 0,-0.59 0.43,-0.89 1.27,-0.89 0.58,0 1.98,0.16 1.98,0.16 z"
         style="font-size:10px;line-height:1.25"
         id="path8996" /><path
         d="m 84.669093,-36.399361 h 1.11 v -5.62 h 0.15 l 1.62,5.34 h 1.16 l 1.62,-5.34 h 0.15 v 5.62 h 1.12 v -6.85 h -1.94 l -1.53,5.35 -1.53,-5.35 h -1.93 z"
         style="font-size:10px;line-height:1.25"
         id="path8998" /><path
         d="m 95.655187,-37.259361 c -1.33,0 -1.64,-0.82 -1.64,-2.53 0,-1.7 0.32,-2.6 1.64,-2.6 1.32,0 1.63,0.9 1.63,2.6 0,1.74 -0.3,2.53 -1.63,2.53 z m 0,0.97 c 2.14,0 2.78,-1.17 2.78,-3.5 0,-2.3 -0.64,-3.57 -2.78,-3.57 -2.14,0 -2.79,1.28 -2.79,3.57 0,2.31 0.64,3.5 2.79,3.5 z"
         style="font-size:10px;line-height:1.25"
         id="path9000" /><path
         d="m 98.930968,-42.259361 h 1.950002 v 5.86 h 1.12 v -5.86 h 1.93 v -0.99 h -5.000002 z"
         style="font-size:10px;line-height:1.25"
         id="path9002" /><path
         d="m 107.21769,-37.259361 c -1.33,0 -1.64,-0.82 -1.64,-2.53 0,-1.7 0.32,-2.6 1.64,-2.6 1.32,0 1.63,0.9 1.63,2.6 0,1.74 -0.3,2.53 -1.63,2.53 z m 0,0.97 c 2.14,0 2.78,-1.17 2.78,-3.5 0,-2.3 -0.64,-3.57 -2.78,-3.57 -2.14,0 -2.79,1.28 -2.79,3.57 0,2.31 0.64,3.5 2.79,3.5 z"
         style="font-size:10px;line-height:1.25"
         id="path9004" /><path
         d="m 114.01019,-38.839361 0.99,2.44 h 1.22 l -1.13,-2.69 c 0.73,-0.34 1.12,-1.01 1.12,-1.98 0,-1.52 -0.81,-2.18 -2.32,-2.18 h -2.6 v 6.85 h 1.11 v -2.44 z m 1.06,-2.22 c 0,0.71 -0.32,1.26 -1.16,1.26 h -1.51 v -2.49 h 1.49 c 0.8,0 1.18,0.45 1.18,1.23 z"
         style="font-size:10px;line-height:1.25"
         id="path9006" /></g><g
       aria-label="Y-AXIS MOTOR"
       transform="scale(1,-1)"
       style="font-style:normal;font-variant:normal;font-weight:600;font-stretch:normal;line-height:0%;font-family:Titillium;-inkscape-font-specification:'Titillium, Semi-Bold';text-align:start;letter-spacing:0px;word-spacing:0px;writing-mode:lr-tb;text-anchor:start;fill:#000000;fill-opacity:1;stroke:none;stroke-width:1px;stroke-linecap:butt;stroke-linejoin:miter;stroke-opacity:1"
       id="text5882-8"><path
         d="m 27.470343,-73.235115 2.13,-4.03 h -1.24 l -1.46,2.94 -1.45,-2.94 h -1.25 l 2.15,4.03 v 2.82 h 1.12 z"
         style="font-size:10px;line-height:1.25"
         id="path8953" /><path
         d="m 29.594562,-72.615115 h 2.99 v -0.99 h -2.99 z"
         style="font-size:10px;line-height:1.25"
         id="path8955" /><path
         d="m 33.364249,-70.415115 h 1.11 l 0.37,-1.47 h 2.63 l 0.37,1.47 h 1.12 l -1.7,-6.85 h -2.21 z m 2.55,-5.92 h 0.5 l 0.84,3.47 h -2.19 z"
         style="font-size:10px;line-height:1.25"
         id="path8957" /><path
         d="m 40.540343,-77.265115 h -1.25 l 2.04,3.54 -2.04,3.31 h 1.17 l 1.5,-2.58 1.47,2.58 h 1.24 l -2.03,-3.37 2.03,-3.48 h -1.17 l -1.49,2.7 z"
         style="font-size:10px;line-height:1.25"
         id="path8959" /><path
         d="m 45.594874,-70.415115 h 1.11 v -6.85 h -1.11 z"
         style="font-size:10px;line-height:1.25"
         id="path8961" /><path
         d="m 52.370187,-77.145115 c 0,0 -1.3,-0.24 -2.17,-0.24 -1.37,0 -2.28,0.57 -2.28,1.95 0,1.19 0.64,1.64 2.12,2.02 1.05,0.25 1.36,0.45 1.36,1.03 0,0.72 -0.39,1.1 -1.24,1.1 -0.71,0 -2.06,-0.18 -2.06,-0.18 l -0.11,0.89 c 0,0 1.35,0.27 2.24,0.27 1.35,0 2.29,-0.65 2.29,-2.15 0,-1.17 -0.52,-1.55 -1.96,-1.95 -1.17,-0.32 -1.53,-0.47 -1.53,-1.11 0,-0.59 0.43,-0.89 1.27,-0.89 0.58,0 1.98,0.16 1.98,0.16 z"
         style="font-size:10px;line-height:1.25"
         id="path8963" /><path
         d="m 55.926906,-70.415115 h 1.11 v -5.62 h 0.15 l 1.62,5.34 h 1.16 l 1.62,-5.34 h 0.15 v 5.62 h 1.12 v -6.85 h -1.94 l -1.53,5.35 -1.53,-5.35 h -1.93 z"
         style="font-size:10px;line-height:1.25"
         id="path8965" /><path
         d="m 66.912999,-71.275115 c -1.33,0 -1.64,-0.82 -1.64,-2.53 0,-1.7 0.32,-2.6 1.64,-2.6 1.32,0 1.63,0.9 1.63,2.6 0,1.74 -0.3,2.53 -1.63,2.53 z m 0,0.97 c 2.14,0 2.78,-1.17 2.78,-3.5 0,-2.3 -0.64,-3.57 -2.78,-3.57 -2.14,0 -2.79,1.28 -2.79,3.57 0,2.31 0.64,3.5 2.79,3.5 z"
         style="font-size:10px;line-height:1.25"
         id="path8967" /><path
         d="m 70.188781,-76.275115 h 1.95 v 5.86 h 1.12 v -5.86 h 1.93 v -0.99 h -5 z"
         style="font-size:10px;line-height:1.25"
         id="path8969" /><path
         d="m 78.475499,-71.275115 c -1.33,0 -1.64,-0.82 -1.64,-2.53 0,-1.7 0.32,-2.6 1.64,-2.6 1.32,0 1.63,0.9 1.63,2.6 0,1.74 -0.3,2.53 -1.63,2.53 z m 0,0.97 c 2.14,0 2.78,-1.17 2.78,-3.5 0,-2.3 -0.64,-3.57 -2.78,-3.57 -2.14,0 -2.79,1.28 -2.79,3.57 0,2.31 0.64,3.5 2.79,3.5 z"
         style="font-size:10px;line-height:1.25"
         id="path8971" /><path
         d="m 85.267999,-72.855115 0.99,2.44 h 1.22 l -1.13,-2.69 c 0.73,-0.34 1.12,-1.01 1.12,-1.98 0,-1.52 -0.81,-2.18 -2.32,-2.18 h -2.6 v 6.85 h 1.11 v -2.44 z m 1.06,-2.22 c 0,0.71 -0.32,1.26 -1.16,1.26 h -1.51 v -2.49 h 1.49 c 0.8,0 1.18,0.45 1.18,1.23 z"
         style="font-size:10px;line-height:1.25"
         id="path8973" /></g><g
       aria-label="LEFT Z-AXIS MOTOR"
       transform="scale(1,-1)"
       style="font-style:normal;font-variant:normal;font-weight:600;font-stretch:normal;line-height:0%;font-family:Titillium;-inkscape-font-specification:'Titillium, Semi-Bold';text-align:start;letter-spacing:0px;word-spacing:0px;writing-mode:lr-tb;text-anchor:start;fill:#000000;fill-opacity:1;stroke:none;stroke-width:1px;stroke-linecap:butt;stroke-linejoin:miter;stroke-opacity:1"
       id="text5882-5"><path
         d="m 28.040343,-104.43085 v -0.99 h -2.73 v -5.86 h -1.11 v 6.85 z"
         style="font-size:10px;line-height:1.25"
         id="path8922" /><path
         d="m 28.946437,-104.43085 h 4.32 v -0.98 h -3.21 v -2 h 2.61 v -0.96 h -2.61 v -1.94 h 3.21 v -0.97 h -4.32 z"
         style="font-size:10px;line-height:1.25"
         id="path8924" /><path
         d="m 34.473781,-104.43085 h 1.11 v -2.6 h 2.61 v -0.97 h -2.61 v -2.31 h 3.14 v -0.97 h -4.25 z"
         style="font-size:10px;line-height:1.25"
         id="path8926" /><path
         d="m 39.106749,-110.29085 h 1.95 v 5.86 h 1.12 v -5.86 h 1.93 v -0.99 h -5 z"
         style="font-size:10px;line-height:1.25"
         id="path8928" /><path
         d="m 46.857687,-110.31085 h 3.17 v 0.2 l -3.17,4.62 v 1.06 h 4.5 v -0.97 h -3.18 v -0.19 l 3.18,-4.62 v -1.07 h -4.5 z"
         style="font-size:10px;line-height:1.25"
         id="path8930" /><path
         d="m 52.145343,-106.63085 h 2.99 v -0.99 h -2.99 z"
         style="font-size:10px;line-height:1.25"
         id="path8932" /><path
         d="m 55.915031,-104.43085 h 1.11 l 0.37,-1.47 h 2.63 l 0.37,1.47 h 1.12 l -1.7,-6.85 h -2.21 z m 2.55,-5.92 h 0.5 l 0.84,3.47 h -2.19 z"
         style="font-size:10px;line-height:1.25"
         id="path8934" /><path
         d="m 63.091124,-111.28085 h -1.25 l 2.04,3.54 -2.04,3.31 h 1.17 l 1.5,-2.58 1.47,2.58 h 1.24 l -2.03,-3.37 2.03,-3.48 h -1.17 l -1.49,2.7 z"
         style="font-size:10px;line-height:1.25"
         id="path8936" /><path
         d="m 68.145656,-104.43085 h 1.11 v -6.85 h -1.11 z"
         style="font-size:10px;line-height:1.25"
         id="path8938" /><path
         d="m 74.920968,-111.16085 c 0,0 -1.3,-0.24 -2.17,-0.24 -1.37,0 -2.28,0.57 -2.28,1.95 0,1.19 0.64,1.64 2.12,2.02 1.05,0.25 1.36,0.45 1.36,1.03 0,0.72 -0.39,1.1 -1.24,1.1 -0.71,0 -2.06,-0.18 -2.06,-0.18 l -0.11,0.89 c 0,0 1.35,0.27 2.24,0.27 1.35,0 2.29,-0.65 2.29,-2.15 0,-1.17 -0.52,-1.55 -1.96,-1.95 -1.17,-0.32 -1.53,-0.47 -1.53,-1.11 0,-0.59 0.43,-0.89 1.27,-0.89 0.58,0 1.98,0.16 1.98,0.16 z"
         style="font-size:10px;line-height:1.25"
         id="path8940" /><path
         d="m 78.477687,-104.43085 h 1.11 v -5.62 h 0.15 l 1.62,5.34 h 1.16 l 1.62,-5.34 h 0.15 v 5.62 h 1.12 v -6.85 h -1.94 l -1.53,5.35 -1.53,-5.35 h -1.93 z"
         style="font-size:10px;line-height:1.25"
         id="path8942" /><path
         d="m 89.463781,-105.29085 c -1.33,0 -1.64,-0.82 -1.64,-2.53 0,-1.7 0.32,-2.6 1.64,-2.6 1.32,0 1.63,0.9 1.63,2.6 0,1.74 -0.3,2.53 -1.63,2.53 z m 0,0.97 c 2.14,0 2.78,-1.17 2.78,-3.5 0,-2.3 -0.64,-3.57 -2.78,-3.57 -2.14,0 -2.79,1.28 -2.79,3.57 0,2.31 0.64,3.5 2.79,3.5 z"
         style="font-size:10px;line-height:1.25"
         id="path8944" /><path
         d="m 92.739562,-110.29085 h 1.95 v 5.86 h 1.12 v -5.86 h 1.93 v -0.99 h -5 z"
         style="font-size:10px;line-height:1.25"
         id="path8946" /><path
         d="m 101.02628,-105.29085 c -1.329999,0 -1.639999,-0.82 -1.639999,-2.53 0,-1.7 0.32,-2.6 1.639999,-2.6 1.32,0 1.63,0.9 1.63,2.6 0,1.74 -0.3,2.53 -1.63,2.53 z m 0,0.97 c 2.14,0 2.78,-1.17 2.78,-3.5 0,-2.3 -0.64,-3.57 -2.78,-3.57 -2.139999,0 -2.789999,1.28 -2.789999,3.57 0,2.31 0.64,3.5 2.789999,3.5 z"
         style="font-size:10px;line-height:1.25"
         id="path8948" /><path
         d="m 107.81878,-106.87085 0.99,2.44 h 1.22 l -1.13,-2.69 c 0.73,-0.34 1.12,-1.01 1.12,-1.98 0,-1.52 -0.81,-2.18 -2.32,-2.18 h -2.6 v 6.85 h 1.11 v -2.44 z m 1.06,-2.22 c 0,0.71 -0.32,1.26 -1.16,1.26 h -1.51 v -2.49 h 1.49 c 0.8,0 1.18,0.45 1.18,1.23 z"
         style="font-size:10px;line-height:1.25"
         id="path8950" /></g><g
       aria-label="HEAT BED SIGNAL"
       transform="scale(1,-1)"
       style="font-style:normal;font-variant:normal;font-weight:600;font-stretch:normal;line-height:0%;font-family:Titillium;-inkscape-font-specification:'Titillium, Semi-Bold';text-align:start;letter-spacing:0px;word-spacing:0px;writing-mode:lr-tb;text-anchor:start;fill:#000000;fill-opacity:1;stroke:none;stroke-width:1px;stroke-linecap:butt;stroke-linejoin:miter;stroke-opacity:1"
       id="text5882-6"><path
         d="m 28.270343,-178.07588 h 1.12 v -6.85 h -1.12 v 2.92 h -2.96 v -2.92 h -1.11 v 6.85 h 1.11 v -2.96 h 2.96 z"
         style="font-size:10px;line-height:1.25"
         id="path8895" /><path
         d="m 30.958156,-178.07588 h 4.32 v -0.98 h -3.21 v -2 h 2.61 v -0.96 h -2.61 v -1.94 h 3.21 v -0.97 h -4.32 z"
         style="font-size:10px;line-height:1.25"
         id="path8897" /><path
         d="m 35.895499,-178.07588 h 1.11 l 0.37,-1.47 h 2.63 l 0.37,1.47 h 1.12 l -1.7,-6.85 h -2.21 z m 2.55,-5.92 h 0.5 l 0.84,3.47 h -2.19 z"
         style="font-size:10px;line-height:1.25"
         id="path8899" /><path
         d="m 41.411437,-183.93588 h 1.95 v 5.86 h 1.12 v -5.86 h 1.93 v -0.99 h -5 z"
         style="font-size:10px;line-height:1.25"
         id="path8901" /><path
         d="m 49.532374,-184.92588 v 6.85 h 2.68 c 1.33,0 2.18,-0.54 2.18,-1.94 0,-0.94 -0.39,-1.36 -0.98,-1.59 0.55,-0.3 0.81,-0.71 0.81,-1.54 0,-1.27 -0.73,-1.78 -2.09,-1.78 z m 2.6,3.86 c 0.54,0 1.12,0.21 1.12,0.99 0,0.82 -0.41,1.04 -1.1,1.04 h -1.51 v -2.03 z m -0.06,-2.9 c 0.68,0 1.02,0.29 1.02,0.95 0,0.67 -0.3,1.01 -0.98,1.01 h -1.47 v -1.96 z"
         style="font-size:10px;line-height:1.25"
         id="path8903" /><path
         d="m 55.645656,-178.07588 h 4.32 v -0.98 h -3.21 v -2 h 2.61 v -0.96 h -2.61 v -1.94 h 3.21 v -0.97 h -4.32 z"
         style="font-size:10px;line-height:1.25"
         id="path8905" /><path
         d="m 63.542999,-178.07588 c 2.26,0 2.74,-1.37 2.74,-3.54 0,-2.13 -0.53,-3.31 -2.74,-3.31 h -2.37 v 6.85 z m 1.59,-3.54 c 0,1.5 -0.21,2.56 -1.59,2.56 h -1.26 v -4.9 h 1.26 c 1.38,0 1.59,0.84 1.59,2.34 z"
         style="font-size:10px;line-height:1.25"
         id="path8907" /><path
         d="m 73.866281,-184.80588 c 0,0 -1.3,-0.24 -2.17,-0.24 -1.37,0 -2.28,0.57 -2.28,1.95 0,1.19 0.64,1.64 2.12,2.02 1.05,0.25 1.36,0.45 1.36,1.03 0,0.72 -0.39,1.1 -1.24,1.1 -0.71,0 -2.06,-0.18 -2.06,-0.18 l -0.11,0.89 c 0,0 1.35,0.27 2.24,0.27 1.35,0 2.29,-0.65 2.29,-2.15 0,-1.17 -0.52,-1.55 -1.96,-1.95 -1.17,-0.32 -1.53,-0.47 -1.53,-1.11 0,-0.59 0.43,-0.89 1.27,-0.89 0.58,0 1.98,0.16 1.98,0.16 z"
         style="font-size:10px;line-height:1.25"
         id="path8909" /><path
         d="m 75.215968,-178.07588 h 1.11 v -6.85 h -1.11 z"
         style="font-size:10px;line-height:1.25"
         id="path8911" /><path
         d="m 80.701281,-180.69588 h 0.85 v 1.67 c -0.12,0.03 -0.64,0.09 -1.09,0.09 -1.4,0 -1.69,-0.7 -1.69,-2.56 0,-1.93 0.35,-2.55 1.72,-2.55 0.91,0 2.12,0.16 2.12,0.16 l 0.04,-0.88 c 0,0 -1.28,-0.27 -2.33,-0.27 -2.04,0 -2.7,1.14 -2.7,3.54 0,2.27 0.56,3.53 2.74,3.53 0.83,0 2.2,-0.21 2.29,-0.23 v -3.48 h -1.95 z"
         style="font-size:10px;line-height:1.25"
         id="path8913" /><path
         d="m 84.044093,-178.07588 h 1.11 v -5.88 h 0.14 l 2.13,5.88 h 1.9 v -6.85 h -1.11 v 5.87 h -0.15 l -2.08,-5.87 h -1.94 z"
         style="font-size:10px;line-height:1.25"
         id="path8915" /><path
         d="m 90.309562,-178.07588 h 1.11 l 0.37,-1.47 h 2.63 l 0.37,1.47 h 1.12 l -1.7,-6.85 h -2.21 z m 2.55,-5.92 h 0.5 l 0.84,3.47 h -2.19 z"
         style="font-size:10px;line-height:1.25"
         id="path8917" /><path
         d="m 100.73566,-178.07588 v -0.99 h -2.730004 v -5.86 h -1.11 v 6.85 z"
         style="font-size:10px;line-height:1.25"
         id="path8919" /></g><g
       aria-label="HEAT BED POWER"
       transform="scale(1,-1)"
       style="font-style:normal;font-variant:normal;font-weight:600;font-stretch:normal;line-height:0%;font-family:Titillium;-inkscape-font-specification:'Titillium, Semi-Bold';text-align:start;letter-spacing:0px;word-spacing:0px;writing-mode:lr-tb;text-anchor:start;fill:#000000;fill-opacity:1;stroke:none;stroke-width:1px;stroke-linecap:butt;stroke-linejoin:miter;stroke-opacity:1"
       id="text5882-3"><path
         d="m 28.270343,-233.7346 h 1.12 v -6.85 h -1.12 v 2.92 h -2.96 v -2.92 h -1.11 v 6.85 h 1.11 v -2.96 h 2.96 z"
         style="font-size:10px;line-height:1.25"
         id="path8870" /><path
         d="m 30.958156,-233.7346 h 4.32 v -0.98 h -3.21 v -2 h 2.61 v -0.96 h -2.61 v -1.94 h 3.21 v -0.97 h -4.32 z"
         style="font-size:10px;line-height:1.25"
         id="path8872" /><path
         d="m 35.895499,-233.7346 h 1.11 l 0.37,-1.47 h 2.63 l 0.37,1.47 h 1.12 l -1.7,-6.85 h -2.21 z m 2.55,-5.92 h 0.5 l 0.84,3.47 h -2.19 z"
         style="font-size:10px;line-height:1.25"
         id="path8874" /><path
         d="m 41.411437,-239.5946 h 1.95 v 5.86 h 1.12 v -5.86 h 1.93 v -0.99 h -5 z"
         style="font-size:10px;line-height:1.25"
         id="path8876" /><path
         d="m 49.532374,-240.5846 v 6.85 h 2.68 c 1.33,0 2.18,-0.54 2.18,-1.94 0,-0.94 -0.39,-1.36 -0.98,-1.59 0.55,-0.3 0.81,-0.71 0.81,-1.54 0,-1.27 -0.73,-1.78 -2.09,-1.78 z m 2.6,3.86 c 0.54,0 1.12,0.21 1.12,0.99 0,0.82 -0.41,1.04 -1.1,1.04 h -1.51 v -2.03 z m -0.06,-2.9 c 0.68,0 1.02,0.29 1.02,0.95 0,0.67 -0.3,1.01 -0.98,1.01 h -1.47 v -1.96 z"
         style="font-size:10px;line-height:1.25"
         id="path8878" /><path
         d="m 55.645656,-233.7346 h 4.32 v -0.98 h -3.21 v -2 h 2.61 v -0.96 h -2.61 v -1.94 h 3.21 v -0.97 h -4.32 z"
         style="font-size:10px;line-height:1.25"
         id="path8880" /><path
         d="m 63.542999,-233.7346 c 2.26,0 2.74,-1.37 2.74,-3.54 0,-2.13 -0.53,-3.31 -2.74,-3.31 h -2.37 v 6.85 z m 1.59,-3.54 c 0,1.5 -0.21,2.56 -1.59,2.56 h -1.26 v -4.9 h 1.26 c 1.38,0 1.59,0.84 1.59,2.34 z"
         style="font-size:10px;line-height:1.25"
         id="path8882" /><path
         d="m 72.296281,-235.8646 c 1.56,0 2.33,-0.87 2.33,-2.42 0,-1.54 -0.77,-2.3 -2.33,-2.3 h -2.51 v 6.85 h 1.11 v -2.13 z m -1.4,-0.96 v -2.8 h 1.39 c 0.83,0 1.2,0.4 1.2,1.34 0,0.95 -0.37,1.46 -1.2,1.46 z"
         style="font-size:10px;line-height:1.25"
         id="path8884" /><path
         d="m 78.194249,-234.5946 c -1.33,0 -1.64,-0.82 -1.64,-2.53 0,-1.7 0.32,-2.6 1.64,-2.6 1.32,0 1.63,0.9 1.63,2.6 0,1.74 -0.3,2.53 -1.63,2.53 z m 0,0.97 c 2.14,0 2.78,-1.17 2.78,-3.5 0,-2.3 -0.64,-3.57 -2.78,-3.57 -2.14,0 -2.79,1.28 -2.79,3.57 0,2.31 0.64,3.5 2.79,3.5 z"
         style="font-size:10px;line-height:1.25"
         id="path8886" /><path
         d="m 81.716749,-240.5846 1.34,6.85 h 1.8 l 1.17,-5.49 1.18,5.49 h 1.79 l 1.35,-6.85 h -1.17 l -0.98,5.89 h -0.22 l -1.3,-5.87 h -1.3 l -1.3,5.87 h -0.21 l -0.98,-5.89 z"
         style="font-size:10px;line-height:1.25"
         id="path8888" /><path
         d="m 91.368312,-233.7346 h 4.32 v -0.98 h -3.21 v -2 h 2.61 v -0.96 h -2.61 v -1.94 h 3.21 v -0.97 h -4.32 z"
         style="font-size:10px;line-height:1.25"
         id="path8890" /><path
         d="m 99.615656,-236.1746 0.990004,2.44 h 1.22 l -1.13,-2.69 c 0.73,-0.34 1.12,-1.01 1.12,-1.98 0,-1.52 -0.81,-2.18 -2.320004,-2.18 h -2.6 v 6.85 h 1.11 v -2.44 z m 1.060004,-2.22 c 0,0.71 -0.32,1.26 -1.160004,1.26 h -1.51 v -2.49 h 1.49 c 0.800004,0 1.180004,0.45 1.180004,1.23 z"
         style="font-size:10px;line-height:1.25"
         id="path8892" /></g><g
       aria-label="X-AXIS MOTOR"
       transform="scale(1,-1)"
       style="font-style:normal;font-variant:normal;font-weight:600;font-stretch:normal;line-height:0%;font-family:Titillium;-inkscape-font-specification:'Titillium, Semi-Bold';text-align:start;letter-spacing:0px;word-spacing:0px;writing-mode:lr-tb;text-anchor:start;fill:#000000;fill-opacity:1;stroke:none;stroke-width:1px;stroke-linecap:butt;stroke-linejoin:miter;stroke-opacity:1"
       id="text5882-1"><path
         d="m 25.450332,-323.02624 h -1.25 l 2.04,3.54 -2.04,3.31 h 1.17 l 1.5,-2.58 1.47,2.58 h 1.24 l -2.03,-3.37 2.03,-3.48 h -1.17 l -1.49,2.7 z"
         style="font-size:10px;line-height:1.25"
         id="path8847" /><path
         d="m 29.9733,-318.37624 h 2.99 v -0.99 h -2.99 z"
         style="font-size:10px;line-height:1.25"
         id="path8849" /><path
         d="m 33.742988,-316.17624 h 1.11 l 0.37,-1.47 h 2.63 l 0.37,1.47 h 1.12 l -1.7,-6.85 h -2.21 z m 2.55,-5.92 h 0.5 l 0.84,3.47 h -2.19 z"
         style="font-size:10px;line-height:1.25"
         id="path8851" /><path
         d="m 40.919082,-323.02624 h -1.25 l 2.04,3.54 -2.04,3.31 h 1.17 l 1.5,-2.58 1.47,2.58 h 1.24 l -2.03,-3.37 2.03,-3.48 h -1.17 l -1.49,2.7 z"
         style="font-size:10px;line-height:1.25"
         id="path8853" /><path
         d="m 45.973613,-316.17624 h 1.11 v -6.85 h -1.11 z"
         style="font-size:10px;line-height:1.25"
         id="path8855" /><path
         d="m 52.748925,-322.90624 c 0,0 -1.3,-0.24 -2.17,-0.24 -1.37,0 -2.28,0.57 -2.28,1.95 0,1.19 0.64,1.64 2.12,2.02 1.05,0.25 1.36,0.45 1.36,1.03 0,0.72 -0.39,1.1 -1.24,1.1 -0.71,0 -2.06,-0.18 -2.06,-0.18 l -0.11,0.89 c 0,0 1.35,0.27 2.24,0.27 1.35,0 2.29,-0.65 2.29,-2.15 0,-1.17 -0.52,-1.55 -1.96,-1.95 -1.17,-0.32 -1.53,-0.47 -1.53,-1.11 0,-0.59 0.43,-0.89 1.27,-0.89 0.58,0 1.98,0.16 1.98,0.16 z"
         style="font-size:10px;line-height:1.25"
         id="path8857" /><path
         d="m 56.305644,-316.17624 h 1.11 v -5.62 h 0.15 l 1.62,5.34 h 1.16 l 1.62,-5.34 h 0.15 v 5.62 h 1.12 v -6.85 h -1.94 l -1.53,5.35 -1.53,-5.35 h -1.93 z"
         style="font-size:10px;line-height:1.25"
         id="path8859" /><path
         d="m 67.291738,-317.03624 c -1.33,0 -1.64,-0.82 -1.64,-2.53 0,-1.7 0.32,-2.6 1.64,-2.6 1.32,0 1.63,0.9 1.63,2.6 0,1.74 -0.3,2.53 -1.63,2.53 z m 0,0.97 c 2.14,0 2.78,-1.17 2.78,-3.5 0,-2.3 -0.64,-3.57 -2.78,-3.57 -2.14,0 -2.79,1.28 -2.79,3.57 0,2.31 0.64,3.5 2.79,3.5 z"
         style="font-size:10px;line-height:1.25"
         id="path8861" /><path
         d="m 70.567519,-322.03624 h 1.95 v 5.86 h 1.12 v -5.86 h 1.93 v -0.99 h -5 z"
         style="font-size:10px;line-height:1.25"
         id="path8863" /><path
         d="m 78.854238,-317.03624 c -1.33,0 -1.64,-0.82 -1.64,-2.53 0,-1.7 0.32,-2.6 1.64,-2.6 1.32,0 1.63,0.9 1.63,2.6 0,1.74 -0.3,2.53 -1.63,2.53 z m 0,0.97 c 2.14,0 2.78,-1.17 2.78,-3.5 0,-2.3 -0.64,-3.57 -2.78,-3.57 -2.14,0 -2.79,1.28 -2.79,3.57 0,2.31 0.64,3.5 2.79,3.5 z"
         style="font-size:10px;line-height:1.25"
         id="path8865" /><path
         d="m 85.646738,-318.61624 0.99,2.44 h 1.22 l -1.13,-2.69 c 0.73,-0.34 1.12,-1.01 1.12,-1.98 0,-1.52 -0.81,-2.18 -2.32,-2.18 h -2.6 v 6.85 h 1.11 v -2.44 z m 1.06,-2.22 c 0,0.71 -0.32,1.26 -1.16,1.26 h -1.51 v -2.49 h 1.49 c 0.8,0 1.18,0.45 1.18,1.23 z"
         style="font-size:10px;line-height:1.25"
         id="path8867" /></g></g></svg>